<?xml version="1.0" standalone="no"?>
<!DOCTYPE svg PUBLIC "-//W3C//DTD SVG 20010904//EN"
 "http://www.w3.org/TR/2001/REC-SVG-20010904/DTD/svg10.dtd">
<svg version="1.0" xmlns="http://www.w3.org/2000/svg"
 width="500.000000pt" height="500.000000pt" viewBox="0 0 500.000000 500.000000"
 preserveAspectRatio="xMidYMid meet">

<g transform="translate(0.000000,500.000000) scale(0.100000,-0.100000)"
fill="#000000" stroke="none">
<path d="M2453 3679 c-45 -28 -66 -80 -61 -145 3 -30 1 -54 -4 -54 -11 0 -60
-78 -73 -115 -8 -23 -19 -31 -48 -38 -38 -9 -107 -64 -107 -86 0 -7 20 -11 51
-11 28 0 60 -5 71 -11 17 -9 25 -6 51 20 17 17 28 33 24 37 -3 4 -15 -4 -25
-16 -18 -22 -20 -22 -42 -7 -16 11 -29 13 -46 7 -31 -12 -32 7 -3 39 18 19 29
22 61 18 22 -3 51 -16 64 -28 l25 -23 -43 -37 c-33 -28 -47 -35 -60 -28 -21
11 -137 28 -140 20 -2 -3 -25 -17 -52 -30 -69 -35 -78 -61 -43 -123 15 -27 25
-53 21 -59 -3 -5 2 -21 11 -35 16 -24 15 -27 -2 -40 -17 -14 -17 -14 4 -5 24
12 92 15 117 5 32 -12 17 -34 -23 -34 -65 0 -104 -45 -137 -155 -18 -60 -80
-38 -70 24 5 32 5 33 -5 11 -15 -35 -6 -148 16 -190 22 -44 62 -88 97 -106 35
-18 101 -18 137 0 32 17 86 76 95 104 6 18 20 20 139 26 72 4 159 9 193 12 61
6 61 6 74 -25 7 -17 28 -44 46 -61 114 -100 274 4 274 178 0 79 -16 127 -56
172 -41 45 -80 63 -125 57 -32 -4 -32 -4 7 -5 24 -1 55 -12 75 -25 36 -23 79
-97 79 -132 -1 -12 -6 -5 -14 18 -34 93 -118 129 -176 75 -19 -18 -25 -19 -46
-8 -32 18 -30 26 9 50 17 11 27 20 21 20 -6 0 -23 -9 -36 -20 l-25 -19 -23 24
c-26 28 -27 26 20 50 19 9 49 32 67 51 33 35 73 46 73 19 0 -9 -6 -12 -15 -9
-8 4 -15 1 -15 -6 0 -8 8 -10 21 -7 16 4 30 -4 57 -34 43 -47 54 -49 41 -7 -6
23 -5 34 4 40 8 5 7 8 -5 8 -10 0 -18 6 -18 14 0 8 -7 22 -16 31 -15 15 -15
18 6 40 14 15 20 30 16 43 -5 15 -1 22 13 27 21 6 48 65 29 65 -6 0 -62 -12
-124 -27 -63 -14 -116 -24 -119 -21 -4 3 -8 23 -10 44 -2 22 -11 59 -20 84 -9
25 -19 55 -22 68 -3 12 -10 22 -16 22 -6 0 -25 14 -42 30 -28 27 -33 29 -45
15 -22 -26 -31 -16 -11 13 43 61 33 168 -20 206 -32 22 -87 20 -126 -5z m109
5 c10 -9 -104 -115 -121 -112 -39 8 -15 89 32 108 25 10 81 13 89 4z m-6 -148
c-9 -59 -44 -96 -91 -96 -19 0 -35 4 -35 10 0 5 7 7 16 3 13 -5 15 1 9 41 -9
57 0 60 15 6 6 -22 16 -40 21 -40 10 0 8 21 -7 73 -3 9 0 17 6 17 6 0 13 -7
15 -15 16 -51 16 -50 25 -35 14 21 12 60 -2 60 -6 0 -3 6 8 14 25 19 28 15 20
-38z m-165 -97 c-11 -12 -23 -36 -26 -53 -11 -56 -16 -66 -30 -66 -11 0 -13 8
-8 33 8 41 51 107 70 107 10 0 8 -6 -6 -21z m282 -33 c12 -18 13 -25 4 -29
-16 -6 -57 10 -57 23 0 5 -10 9 -21 7 -32 -3 -33 18 -2 29 33 12 54 4 76 -30z
m-223 -178 c0 -4 -12 -8 -27 -8 -16 0 -39 -3 -53 -7 l-25 -6 28 30 c15 16 25
32 21 36 -3 3 -3 11 1 17 7 11 55 -44 55 -62z m170 22 c0 -8 -10 -28 -23 -44
-21 -25 -26 -27 -46 -17 -12 7 -34 11 -49 9 l-27 -4 30 -13 c29 -12 29 -13 11
-27 -11 -8 -26 -14 -33 -14 -17 0 -17 -17 0 -23 9 -4 9 -7 -1 -18 -11 -12 -15
-11 -26 4 -7 9 -19 17 -27 18 -16 1 -74 67 -66 75 3 3 38 11 77 17 52 8 79 8
101 0 25 -10 31 -9 44 10 8 12 15 33 15 47 0 20 2 22 10 10 5 -8 10 -22 10
-30z m350 -29 c0 -16 -24 -28 -97 -52 -70 -22 -93 -39 -55 -39 15 -1 14 -2 -3
-12 -11 -6 -28 -19 -38 -29 -10 -11 -23 -19 -29 -19 -6 0 -1 11 11 24 18 19
21 31 16 57 l-6 34 83 21 c95 25 118 28 118 15z m-834 -43 c-3 -13 -6 -54 -6
-91 0 -43 -4 -66 -10 -62 -5 3 -10 14 -10 24 0 10 -9 28 -20 41 -22 26 -23 29
-11 49 5 7 14 10 20 7 7 -5 11 2 11 17 0 25 7 37 23 37 5 0 7 -10 3 -22z m244
-76 c0 -5 -27 -21 -61 -37 -33 -16 -63 -33 -66 -37 -2 -5 25 6 60 23 l65 32
47 -17 c26 -10 74 -37 108 -60 50 -33 62 -46 60 -66 -1 -26 31 -170 47 -207 8
-19 13 -21 34 -13 31 12 40 0 20 -28 -17 -24 -41 -29 -171 -36 -103 -5 -105
-4 -82 63 19 55 2 45 -31 -18 -18 -33 -38 -62 -46 -65 -19 -7 -18 -2 9 42 54
86 69 131 62 177 -3 25 -4 45 -1 45 4 0 41 -30 84 -67 66 -59 72 -62 43 -26
-45 57 -118 117 -193 160 -82 47 -124 56 -155 36 -13 -9 -26 -13 -30 -10 -8 9
39 85 88 141 l43 48 33 -36 c18 -19 33 -39 33 -44z m573 54 c8 -21 -59 -78
-110 -95 -23 -8 -40 -17 -38 -22 8 -12 -55 -59 -78 -59 -18 1 -16 4 13 20 19
11 31 19 27 20 -5 0 -17 -5 -28 -11 -11 -5 -28 -9 -37 -6 -11 2 3 13 39 29 31
14 59 33 62 42 4 9 22 24 42 33 19 9 35 20 35 25 0 7 48 37 61 38 4 0 9 -6 12
-14z m-403 -96 c0 -21 -15 -27 -25 -10 -7 12 2 30 16 30 5 0 9 -9 9 -20z
m-260 -87 c0 -25 -43 -153 -51 -153 -19 0 -19 26 2 88 12 37 24 70 26 75 8 13
23 7 23 -10z m-85 -102 c3 -5 1 -12 -5 -16 -6 -4 -8 -10 -5 -15 3 -4 -7 -15
-21 -25 -29 -18 -54 -71 -54 -111 0 -46 30 -94 62 -101 23 -4 26 -8 17 -19 -6
-8 -21 -15 -33 -15 -18 -1 -18 -2 -3 -6 24 -6 54 21 79 72 17 32 19 50 14 106
-7 76 6 98 24 43 29 -87 -15 -225 -75 -240 -27 -7 -81 3 -71 13 3 3 -3 13 -14
20 -33 23 -52 72 -52 133 0 84 33 139 86 141 l31 2 -29 4 c-22 4 -26 7 -15 14
18 11 56 11 64 0z m747 -18 c49 -54 61 -138 29 -208 -40 -87 -92 -101 -147
-39 -19 21 -34 41 -34 45 0 4 -3 14 -6 23 -10 26 86 22 109 -5 56 -65 102 58
48 128 -12 14 -21 21 -21 14 0 -6 -8 -11 -17 -11 -12 0 -7 -7 15 -20 31 -19
43 -40 22 -40 -5 0 -10 -7 -10 -15 0 -8 4 -15 10 -15 5 0 7 -7 4 -15 -4 -8
-12 -15 -19 -15 -7 0 -15 7 -19 15 -4 12 -24 15 -88 15 -66 1 -79 3 -64 12 11
6 48 10 83 9 48 -1 63 2 63 12 0 8 -11 19 -24 25 -21 9 -23 8 -18 -10 4 -18 2
-19 -44 -13 -27 4 -50 8 -50 9 -1 0 -5 27 -8 58 l-7 56 65 -34 c36 -20 66 -33
66 -30 0 3 -13 12 -30 21 -28 15 -29 16 -13 35 26 30 74 26 105 -7z m-656 -18
c22 -52 16 -76 -6 -26 -11 24 -20 47 -20 52 0 19 12 7 26 -26z m-56 -124 c0
-11 -4 -22 -9 -25 -11 -7 -23 22 -15 35 9 16 24 10 24 -10z"/>
<path d="M2327 3111 c-3 -12 -17 -23 -33 -26 -48 -11 -52 -13 -64 -35 -10 -19
-3 -17 57 16 37 20 69 38 71 39 1 1 -4 7 -12 14 -11 9 -15 7 -19 -8z"/>
<path d="M2400 2996 c0 -2 17 -15 37 -27 20 -13 31 -25 25 -27 -7 -2 12 -23
41 -47 29 -24 61 -54 70 -67 14 -20 16 -21 16 -4 1 29 -22 98 -29 87 -3 -6
-27 4 -55 25 -53 38 -105 68 -105 60z"/>
<path d="M2891 2857 c2 -1 13 -9 24 -17 19 -14 19 -14 6 3 -7 9 -18 17 -24 17
-6 0 -8 -1 -6 -3z"/>
<path d="M2906 2605 c-11 -8 -15 -15 -9 -15 6 0 16 7 23 15 16 19 11 19 -14 0z"/>
<path d="M3005 3030 c-3 -5 1 -10 9 -10 9 0 16 5 16 10 0 6 -4 10 -9 10 -6 0
-13 -4 -16 -10z"/>
<path d="M2028 2893 c-30 -33 -52 -72 -44 -81 3 -3 6 0 6 6 0 6 16 31 35 56
40 52 41 59 3 19z"/>
<path d="M858 2363 c-8 -10 -47 -71 -87 -136 -56 -93 -71 -126 -69 -150 l3
-32 93 -3 93 -3 -1 -47 c-3 -94 -3 -94 33 -90 l32 3 3 68 c2 51 6 67 17 67 10
0 15 11 15 35 0 24 -5 35 -14 35 -10 0 -16 14 -18 43 -3 39 -5 42 -35 45 -22
2 -33 -1 -34 -10 0 -7 -2 -26 -2 -43 -2 -28 -5 -30 -44 -33 -29 -2 -43 1 -43
9 0 7 32 64 70 127 39 63 70 119 70 123 0 17 -67 9 -82 -8z"/>
<path d="M1144 2306 c-17 -7 -34 -21 -38 -31 -11 -31 -7 -153 7 -162 6 -4 41
-17 77 -28 64 -20 65 -21 68 -59 4 -42 -8 -56 -46 -56 -17 0 -27 8 -35 30 -9
25 -17 30 -44 30 -32 0 -33 -2 -33 -39 0 -64 25 -84 106 -89 59 -3 73 -1 97
18 26 20 27 25 27 109 l0 87 -76 24 c-81 26 -90 35 -80 76 6 22 11 25 43 22
30 -2 38 -8 43 -28 5 -20 12 -25 35 -25 28 0 30 2 33 46 2 35 -2 49 -17 63
-26 24 -125 31 -167 12z"/>
<path d="M1453 2314 c-10 -4 -13 -56 -13 -210 l0 -205 38 3 37 3 3 63 3 62 44
0 c96 0 120 36 113 166 -5 104 -20 118 -131 121 -45 1 -88 0 -94 -3z m147
-138 c0 -68 -6 -76 -56 -76 -23 0 -24 3 -24 70 l0 70 40 0 40 0 0 -64z"/>
<path d="M1792 2312 c-9 -7 -12 -55 -10 -208 l3 -199 118 -3 117 -3 0 41 0 40
-80 0 -80 0 0 45 0 45 60 0 60 0 0 35 0 34 -57 3 -58 3 -3 48 -3 47 80 0 81 0
0 34 c0 22 -6 36 -16 40 -23 9 -197 7 -212 -2z"/>
<path d="M2125 2298 c-3 -13 -4 -106 -3 -208 l3 -185 118 -3 117 -3 0 41 0 40
-80 0 -80 0 0 45 0 45 60 0 60 0 0 35 0 34 -57 3 -58 3 -3 48 -3 47 81 0 81 0
-3 38 -3 37 -112 3 c-110 3 -113 2 -118 -20z"/>
<path d="M2473 2313 c-15 -6 -19 -379 -4 -402 6 -10 31 -12 101 -10 129 5 130
6 130 200 0 171 -7 194 -59 209 -37 10 -146 12 -168 3z m147 -203 l0 -130 -40
0 -40 0 0 130 0 130 40 0 40 0 0 -130z"/>
<path d="M3008 2314 c-5 -4 -8 -99 -8 -211 l0 -203 35 0 35 0 0 65 0 65 30 0
c24 0 31 -5 36 -27 23 -104 23 -103 59 -103 40 0 41 3 20 79 -12 47 -12 57 1
75 10 15 14 49 14 122 0 130 -5 136 -128 142 -48 2 -90 1 -94 -4z m147 -144
l0 -65 -42 -3 -43 -3 0 71 0 71 43 -3 42 -3 0 -65z"/>
<path d="M3433 2308 c-9 -12 -103 -374 -103 -398 0 -5 15 -10 34 -10 33 0 35
2 43 43 l9 42 58 0 59 0 11 -40 c10 -35 16 -40 44 -43 25 -3 32 0 32 15 0 10
-22 104 -48 208 l-48 190 -40 3 c-25 2 -45 -2 -51 -10z m62 -165 c22 -88 21
-93 -20 -93 -19 0 -35 3 -35 8 0 16 34 151 37 148 3 -2 11 -30 18 -63z"/>
<path d="M3774 2311 c-47 -20 -54 -46 -54 -196 0 -77 3 -150 6 -163 9 -31 53
-52 113 -52 90 0 121 29 121 115 0 45 0 45 -35 45 -33 0 -35 -2 -35 -34 0 -40
-19 -59 -57 -54 l-28 3 -3 133 -3 133 43 -3 c42 -3 43 -4 46 -40 3 -36 5 -38
38 -38 l34 0 0 49 c0 74 -27 101 -105 107 -33 2 -70 0 -81 -5z"/>
<path d="M4072 2312 c-9 -7 -12 -55 -10 -208 l3 -199 118 -3 117 -3 0 41 0 40
-80 0 -80 0 0 45 0 45 60 0 60 0 0 35 0 34 -57 3 -58 3 -3 48 -3 47 81 0 81 0
-3 38 -3 37 -105 3 c-58 1 -111 -2 -118 -6z"/>
<path d="M1670 1620 c0 -33 4 -60 10 -60 6 0 10 15 10 33 l1 32 22 -28 23 -28
14 26 c18 34 30 32 30 -5 0 -16 5 -30 10 -30 6 0 10 27 10 60 0 33 -4 60 -9
60 -5 0 -19 -16 -31 -35 -24 -39 -33 -38 -55 6 -24 45 -35 35 -35 -31z"/>
<path d="M1882 1664 c-42 -29 -18 -104 34 -104 34 0 64 29 64 60 0 30 -30 60
-60 60 -9 0 -26 -7 -38 -16z m68 -19 c17 -21 -2 -65 -28 -65 -22 0 -42 19 -42
40 0 37 47 53 70 25z"/>
<path d="M2030 1671 c0 -5 9 -11 20 -14 16 -4 20 -14 20 -51 0 -25 5 -46 10
-46 6 0 10 23 10 50 0 43 3 50 20 50 11 0 20 5 20 10 0 6 -22 10 -50 10 -27 0
-50 -4 -50 -9z"/>
<path d="M2190 1660 c-11 -11 -20 -29 -20 -40 0 -27 35 -60 63 -60 36 0 60 23
60 59 0 55 -63 81 -103 41z m74 -22 c15 -25 -4 -53 -35 -53 -19 0 -25 6 -27
29 -5 45 38 61 62 24z"/>
<path d="M2350 1620 c0 -47 3 -60 15 -60 8 0 15 9 15 20 0 11 4 20 8 20 5 0
17 -9 27 -20 23 -26 39 -26 25 -1 -7 13 -7 22 0 26 17 11 11 54 -9 65 -11 5
-33 10 -50 10 l-31 0 0 -60z m77 24 c6 -16 -12 -34 -34 -34 -7 0 -13 11 -13
25 0 18 5 25 20 25 11 0 23 -7 27 -16z"/>
<path d="M2521 1653 c-41 -52 9 -112 73 -87 27 10 18 22 -15 20 -38 -1 -60 25
-43 52 8 11 23 16 43 15 26 -1 30 1 20 13 -18 22 -56 16 -78 -13z"/>
<path d="M2660 1673 c0 -5 9 -23 20 -41 11 -18 20 -41 20 -52 0 -11 5 -20 10
-20 6 0 10 10 10 23 0 12 9 36 20 52 22 32 25 45 12 45 -5 0 -14 -11 -20 -25
-6 -14 -15 -25 -20 -25 -5 0 -14 11 -20 25 -11 23 -32 35 -32 18z"/>
<path d="M2830 1660 c-43 -43 -4 -111 55 -96 34 9 32 27 -3 20 -39 -8 -59 17
-43 52 10 22 16 25 41 20 31 -6 42 7 14 18 -27 10 -43 7 -64 -14z"/>
<path d="M2970 1620 l0 -60 45 0 c25 0 45 5 45 10 0 6 -13 10 -30 10 -29 0
-30 1 -30 50 0 38 -4 50 -15 50 -12 0 -15 -13 -15 -60z"/>
<path d="M3110 1620 l0 -60 45 0 c25 0 45 5 45 10 0 6 -16 10 -35 10 -24 0
-35 5 -35 15 0 10 10 15 30 15 17 0 30 5 30 10 0 6 -13 10 -30 10 -20 0 -30 5
-30 15 0 10 10 15 30 15 17 0 30 5 30 10 0 6 -18 10 -40 10 l-40 0 0 -60z"/>
<path d="M3260 1665 c-17 -21 -3 -47 29 -55 31 -7 22 -25 -12 -25 -35 0 -29
-19 7 -23 59 -7 75 41 21 64 -39 16 -38 39 2 31 15 -3 22 0 20 7 -6 18 -52 19
-67 1z"/>
</g>
</svg>
