<?xml version="1.0" standalone="no"?>
<!DOCTYPE svg PUBLIC "-//W3C//DTD SVG 20010904//EN"
 "http://www.w3.org/TR/2001/REC-SVG-20010904/DTD/svg10.dtd">
<svg version="1.0" xmlns="http://www.w3.org/2000/svg"
 width="1701.000000pt" height="746.000000pt" viewBox="0 0 1701.000000 746.000000"
 preserveAspectRatio="xMidYMid meet">

<g transform="translate(0.000000,746.000000) scale(0.100000,-0.100000)"
fill="#000000" stroke="none">
<path d="M0 3730 l0 -3730 5420 0 5420 0 0 413 0 412 -127 24 c-71 13 -139 25
-153 26 -35 4 -228 34 -269 41 -22 5 -32 3 -27 -4 4 -6 -1 -8 -13 -5 -13 3
-23 -2 -31 -16 -12 -24 -32 -19 -23 6 5 14 -1 15 -45 11 -28 -3 -53 -2 -55 1
-2 3 -2 0 -1 -6 4 -17 -4 -16 -22 2 -9 8 -20 15 -27 15 -6 0 -2 -7 9 -16 18
-15 17 -15 -13 -10 -21 3 -33 1 -33 -5 0 -7 -10 -5 -25 5 -30 20 -39 20 -31 1
3 -8 1 -15 -5 -15 -5 0 -12 6 -15 14 -3 8 -12 12 -20 9 -8 -3 -21 0 -29 7 -14
12 -19 7 -16 -13 1 -5 -4 -5 -10 -1 -18 11 -139 32 -139 24 0 -10 37 -20 71
-20 14 0 29 -4 35 -8 5 -5 49 -17 97 -27 48 -10 86 -19 84 -21 -6 -6 -116 12
-180 30 -32 9 -71 16 -87 16 -16 0 -39 4 -52 9 -28 10 -80 3 -72 -10 3 -5 10
-7 15 -4 5 4 9 1 9 -5 0 -11 -63 -5 -114 11 -37 12 -49 11 -41 -1 3 -5 0 -10
-9 -10 -8 0 -16 -5 -18 -11 -3 -8 -9 -7 -19 3 -9 9 -22 12 -34 8 -21 -8 -20
-8 25 -23 8 -3 -2 -6 -22 -6 -27 -1 -38 3 -38 13 0 8 -6 18 -12 22 -7 4 -10 4
-6 -1 4 -4 0 -14 -10 -21 -9 -7 -19 -9 -22 -5 -3 4 -22 11 -42 14 -30 4 -36 3
-31 -9 3 -8 2 -14 -3 -13 -5 1 -13 1 -19 0 -14 -3 95 -39 120 -40 11 -1 27 -5
34 -10 20 -13 -37 -8 -158 14 -51 9 -100 14 -107 11 -7 -3 -14 0 -16 5 -4 13
-118 40 -118 28 0 -5 10 -10 23 -10 17 -1 18 -2 4 -6 -10 -3 -14 -10 -10 -16
3 -7 -3 -4 -15 7 -14 12 -31 17 -52 14 -16 -3 -30 0 -30 5 0 5 -6 7 -13 4 -8
-3 -36 -1 -63 5 -27 5 -59 10 -71 10 -13 0 -23 3 -23 7 0 3 -21 7 -48 9 -26 2
-65 8 -87 13 -43 12 -112 24 -185 33 -45 6 -45 6 10 -10 30 -9 111 -27 180
-42 69 -14 126 -28 128 -32 1 -4 16 -4 32 -2 18 2 30 0 30 -7 0 -6 7 -8 17 -4
13 5 15 2 10 -11 -4 -9 -3 -15 2 -11 5 3 12 1 16 -5 3 -5 11 -10 17 -10 7 0 6
6 -2 15 -17 20 -7 19 35 -4 l36 -19 -41 -4 c-23 -2 -44 0 -46 4 -3 5 -10 6
-15 3 -11 -8 -51 19 -42 28 3 4 1 7 -5 7 -7 0 -12 -4 -12 -9 0 -5 -15 -5 -34
-1 -19 4 -37 5 -40 3 -2 -3 -20 0 -38 6 -18 6 -55 13 -82 16 -28 4 -54 9 -60
12 -5 4 -7 -1 -3 -10 8 -21 6 -21 -84 2 -41 10 -92 21 -114 24 l-40 7 40 -16
c22 -8 49 -16 60 -18 11 -1 36 -7 55 -13 19 -7 72 -19 118 -29 45 -9 82 -21
82 -25 0 -5 -12 -6 -28 -3 -15 2 -91 15 -169 28 -133 21 -143 21 -143 5 0 -9
10 -19 23 -23 32 -8 39 -7 32 4 -10 16 11 11 25 -5 7 -9 19 -14 27 -11 7 3 13
2 13 -3 0 -16 -38 -19 -86 -6 -27 7 -69 15 -93 18 -69 9 -34 -13 43 -26 43 -7
66 -16 66 -25 0 -8 -7 -11 -18 -8 -45 15 -188 48 -217 51 -35 4 -215 67 -225
80 -7 8 -22 15 -34 14 -19 -1 -18 -2 4 -9 27 -9 23 -12 -15 -12 -46 0 -55 2
-55 12 0 6 7 10 15 10 8 0 15 4 15 10 0 6 -9 6 -26 -1 -32 -11 -123 0 -299 36
-66 14 -127 27 -135 29 -8 3 -36 9 -61 15 -25 6 -54 13 -64 17 -13 5 -16 4
-11 -4 4 -7 16 -12 27 -12 10 0 19 -4 19 -9 0 -6 -13 -6 -32 -1 -61 15 -99 20
-94 11 3 -5 24 -11 47 -15 23 -4 47 -10 53 -13 10 -6 26 -10 64 -15 6 -1 12
-5 12 -9 0 -5 6 -6 14 -3 8 3 17 0 22 -7 5 -9 -1 -10 -27 -4 -19 4 -43 9 -54
10 -11 2 -21 4 -22 5 -2 2 -6 3 -10 4 -5 1 -12 4 -18 8 -5 3 -23 6 -40 6 -16
0 -31 5 -33 11 -2 6 -16 11 -30 11 -25 0 -98 17 -237 54 -83 22 -110 20 -61
-4 22 -11 45 -20 52 -20 8 0 11 -6 8 -15 -4 -8 -10 -15 -16 -15 -5 0 -6 5 -2
12 5 8 0 9 -14 6 -12 -4 -22 -3 -22 1 0 4 -16 8 -35 9 -19 1 -43 6 -53 11 -9
5 -35 12 -57 15 -22 3 -58 9 -80 13 -22 4 -44 7 -50 8 -5 1 -23 6 -38 13 -35
15 -47 15 -47 1 0 -5 4 -8 8 -5 4 2 14 1 22 -5 12 -7 11 -9 -5 -9 -18 0 -18
-1 3 -16 13 -9 29 -13 36 -11 8 3 34 0 58 -7 23 -7 55 -13 70 -12 14 1 24 -2
22 -6 -3 -4 4 -8 16 -8 13 0 19 4 14 12 -4 7 -3 8 5 4 6 -4 9 -11 6 -16 -8
-12 43 -18 55 -6 8 8 9 6 5 -6 -8 -19 -20 -18 -150 12 -44 10 -100 21 -124 25
-39 5 -43 4 -31 -10 11 -13 8 -15 -16 -15 -52 0 -61 14 -33 52 36 49 76 127
88 175 9 33 8 50 -5 88 -15 46 -15 47 8 62 92 62 297 316 343 426 11 28 20 37
33 33 9 -2 27 -7 40 -11 13 -4 29 -1 37 5 19 15 34 5 28 -19 -6 -23 23 -35 60
-26 17 5 41 -3 78 -23 30 -17 72 -35 94 -40 41 -11 473 -25 650 -22 105 2 152
13 99 24 -48 10 -272 44 -369 55 -205 26 -245 28 -286 21 -44 -8 -79 1 -79 21
0 6 -5 7 -12 3 -6 -4 -8 -3 -5 3 5 8 -133 136 -181 169 -8 6 93 226 150 325
56 99 79 169 57 169 -5 0 -9 -7 -9 -16 0 -8 -5 -12 -10 -9 -14 8 6 45 25 45 7
0 15 -10 17 -23 2 -18 8 -13 36 32 35 57 124 156 154 172 23 12 43 1 128 -66
92 -73 98 -75 68 -24 -30 51 -152 319 -197 431 -17 43 -40 87 -51 98 -15 15
-18 25 -11 34 7 8 3 41 -14 106 -52 203 -85 469 -85 692 l0 117 -30 23 c-17
12 -30 25 -30 29 0 8 155 107 220 139 25 13 56 24 70 26 25 3 75 22 227 87 44
19 102 38 127 41 25 4 51 13 58 20 18 17 142 45 208 47 30 0 91 -6 135 -15
104 -20 285 -43 405 -51 137 -8 229 -26 223 -42 -4 -9 0 -11 13 -6 12 4 15 3
10 -5 -4 -7 -2 -12 3 -12 6 0 11 5 11 11 0 5 5 7 10 4 6 -3 10 -1 10 6 0 9 24
10 93 6 50 -3 103 -9 117 -13 22 -5 20 -2 -13 26 -20 17 -37 37 -37 43 0 13
-85 83 -160 134 -74 50 -237 134 -375 194 -71 31 -131 61 -132 66 -2 6 55 73
127 149 71 76 130 141 130 144 0 6 -112 50 -129 50 -19 0 -12 49 8 60 11 5 40
10 66 10 33 0 47 4 52 16 8 21 -11 50 -29 45 -7 -2 -29 -7 -50 -11 -20 -4 -55
-16 -77 -27 -26 -13 -37 -15 -30 -7 10 12 7 17 -11 16 -3 0 -6 14 -7 31 -3 39
-16 52 -33 32 -7 -8 -17 -15 -23 -15 -5 0 -2 10 9 23 10 12 12 16 4 9 -22 -19
-27 -15 -28 25 -2 44 -16 63 -35 44 -10 -10 -9 -14 6 -22 9 -6 17 -15 17 -21
0 -7 -5 -6 -15 2 -13 11 -15 8 -15 -14 0 -15 7 -43 15 -64 13 -33 13 -35 0
-17 -36 46 -41 130 -9 156 12 10 11 16 -5 43 -10 17 -21 42 -24 56 -3 14 -13
34 -22 45 -14 19 -15 19 -5 -8 16 -46 12 -90 -17 -147 -25 -50 -27 -52 -37
-31 -5 12 -15 20 -23 17 -20 -8 -16 15 13 77 20 44 23 61 15 76 -6 11 -11 29
-11 40 0 11 -10 30 -22 43 -13 13 -17 17 -10 8 6 -9 12 -25 12 -35 0 -14 -3
-15 -15 -5 -8 7 -13 16 -10 20 3 4 -12 18 -32 30 -27 16 -33 24 -24 30 10 5 3
12 -23 21 -36 13 -44 31 -27 58 8 12 16 11 58 -3 26 -10 83 -24 127 -33 64
-13 85 -13 116 -3 36 12 80 7 80 -10 0 -4 23 -14 51 -21 46 -12 63 -26 153
-117 100 -103 105 -113 92 -162 -7 -28 4 -37 119 -93 55 -27 175 -50 175 -33
0 18 -35 56 -85 92 -30 21 -55 45 -55 51 0 7 -19 22 -42 34 -24 12 -83 59
-131 106 -49 46 -92 81 -97 78 -4 -3 -32 28 -61 67 -29 40 -58 78 -65 83 -6 6
-14 36 -17 68 -7 74 -50 153 -104 189 -24 17 -70 33 -119 43 -43 9 -118 30
-166 46 -69 23 -91 27 -112 19 -20 -7 -26 -7 -25 3 2 6 -14 46 -35 87 -27 52
-50 83 -77 102 -22 15 -39 24 -39 20 0 -5 3 -12 7 -16 12 -12 13 -45 1 -52 -6
-4 -8 -3 -5 3 4 7 -7 12 -27 15 -29 3 -37 0 -46 -20 -10 -24 -11 -24 -25 -6
-17 24 -28 13 -28 -26 0 -16 -3 -28 -6 -26 -3 2 -7 -9 -8 -25 -3 -37 -15 -60
-28 -51 -6 4 -28 42 -49 85 -32 62 -44 77 -62 77 -14 0 -25 8 -29 21 -5 14
-13 19 -26 16 -13 -4 -19 0 -19 13 0 12 -12 21 -42 28 -92 23 -104 23 -145 -7
-36 -26 -91 -82 -68 -68 6 3 17 1 25 -4 12 -7 11 -10 -5 -15 -12 -3 -26 -14
-32 -24 -10 -14 -8 -21 6 -34 14 -13 17 -27 13 -61 -6 -57 15 -136 34 -128 10
4 12 0 8 -12 -5 -13 -3 -16 7 -13 8 2 15 19 17 36 2 18 7 32 12 32 5 0 7 13 4
29 -6 26 -4 29 14 24 21 -5 42 -42 78 -138 l19 -50 5 92 c3 50 8 95 12 98 9 9
13 -12 32 -145 36 -255 40 -290 30 -300 -26 -26 -204 127 -196 167 2 8 -1 12
-6 9 -16 -9 -29 16 -37 68 -9 62 -21 96 -36 96 -12 0 -10 -10 12 -88 10 -37 9
-48 -7 -84 l-18 -41 -8 38 c-13 62 -25 69 -58 33 -16 -17 -30 -43 -32 -57 -2
-20 -8 -25 -25 -24 -19 2 -23 -2 -23 -25 0 -19 -3 -23 -9 -13 -7 11 -10 10
-14 -5 -3 -12 -5 -8 -6 12 0 17 -6 45 -12 63 -17 50 27 270 64 319 14 18 2 25
-22 13 -23 -13 -36 -51 -28 -81 3 -11 2 -20 -3 -20 -13 0 -19 52 -9 78 5 14 8
27 5 29 -2 3 -29 -2 -59 -11 -55 -16 -120 -69 -133 -109 -3 -9 5 -39 18 -65
13 -26 23 -51 23 -57 0 -5 4 -15 8 -22 4 -7 0 -16 -9 -21 -15 -8 -15 -10 0
-15 37 -14 11 -22 -66 -19 -75 3 -88 0 -133 -24 -27 -15 -63 -34 -80 -42 -36
-18 -75 -52 -75 -65 0 -6 -6 -18 -14 -26 -11 -13 -86 -148 -86 -156 0 -1 19
16 42 38 23 22 80 58 127 81 73 35 95 41 147 40 75 -1 143 -36 167 -86 77
-167 87 -224 48 -291 -16 -29 -131 -121 -186 -149 -29 -16 -30 -16 -100 42
-38 33 -109 95 -158 139 -48 45 -92 81 -97 81 -6 0 -13 0 -17 0 -5 0 -9 -9 -9
-20 -1 -13 15 -32 47 -56 27 -20 49 -39 49 -44 0 -4 -17 -4 -37 1 -21 5 -45 9
-53 9 -18 0 -24 -35 -10 -60 6 -11 4 -24 -6 -39 -9 -12 -14 -27 -11 -34 2 -6
11 4 19 24 22 50 95 87 137 69 16 -6 39 -23 52 -36 14 -15 25 -20 29 -14 9 15
100 -85 100 -110 0 -17 -3 -19 -19 -11 -10 6 -24 24 -31 41 -7 16 -16 30 -20
30 -10 0 -1 -41 14 -59 9 -11 5 -12 -22 -7 -45 10 -40 0 16 -28 51 -27 36 -35
-20 -12 -32 14 -78 12 -78 -3 0 -3 21 -13 47 -21 30 -9 52 -23 59 -38 6 -12
21 -33 33 -46 20 -21 28 -46 15 -46 -4 0 -21 13 -39 29 -18 15 -68 43 -111 61
-67 28 -92 33 -164 34 -73 1 -85 -1 -88 -16 -3 -16 5 -18 65 -18 126 0 254
-48 306 -114 32 -41 28 -57 -22 -99 -21 -17 -28 -31 -25 -45 3 -11 -4 -38 -15
-60 -12 -23 -21 -48 -21 -57 0 -23 -27 -18 -33 7 -6 21 -7 21 -25 5 -19 -17
-52 -23 -52 -9 0 4 18 31 40 60 22 29 40 54 40 56 0 14 -73 27 -168 31 -97 3
-113 2 -122 -13 -13 -23 -13 41 1 133 16 109 18 136 9 130 -5 -3 -7 -12 -4
-19 3 -7 -2 -20 -10 -29 -9 -9 -13 -22 -10 -30 5 -15 -20 -65 -40 -79 -17 -11
-17 -108 0 -140 9 -16 13 -32 10 -35 -3 -3 -10 5 -15 18 -9 23 -10 23 -10 -8
-1 -33 16 -54 28 -34 11 17 35 -33 28 -58 -3 -11 -1 -19 5 -18 5 1 22 -50 39
-113 16 -63 36 -132 44 -153 9 -21 11 -36 6 -33 -5 3 -17 29 -27 57 -14 38
-29 58 -55 75 -33 20 -65 53 -97 100 -12 18 -13 18 -6 -1 4 -11 12 -36 18 -55
6 -20 37 -61 73 -96 l63 -62 -42 10 c-23 5 -45 11 -50 14 -23 15 -3 -23 36
-64 24 -26 60 -65 80 -87 21 -22 51 -60 68 -84 l31 -44 18 35 c10 19 26 41 35
49 15 11 14 8 -3 -16 -25 -36 -63 -159 -63 -204 0 -20 -5 -31 -14 -31 -8 0
-22 -7 -30 -15 -14 -14 -13 -19 12 -46 15 -17 27 -34 27 -37 0 -4 3 -11 6 -17
16 -26 -14 -80 -38 -71 -8 3 -11 1 -8 -4 7 -12 -34 -30 -52 -23 -14 6 -43 93
-43 129 0 12 6 29 13 36 7 7 25 39 40 72 15 32 43 73 63 92 l37 33 -29 38
c-16 21 -65 79 -110 129 -62 68 -96 117 -136 196 -48 96 -55 105 -74 98 -18
-7 -23 -20 -29 -69 -6 -54 -10 -61 -28 -61 -18 0 -19 -2 -7 -10 8 -5 10 -10 4
-10 -6 0 -32 20 -57 45 -26 25 -45 45 -42 45 3 0 -5 11 -17 25 -11 13 -25 22
-30 19 -5 -3 -7 -1 -6 4 4 13 -49 62 -67 62 -8 0 -13 -9 -12 -19 0 -11 4 -18
8 -15 14 8 31 -27 27 -56 -3 -18 0 -31 8 -34 7 -3 14 -15 16 -28 2 -13 9 -22
16 -20 9 2 11 -4 7 -18 -4 -11 -2 -20 4 -20 6 0 11 -7 11 -16 0 -8 -4 -13 -9
-10 -5 4 -12 0 -14 -6 -4 -8 -8 -5 -12 9 -4 12 -13 19 -20 17 -7 -3 -19 1 -26
9 -8 7 -19 12 -25 10 -7 -2 -26 15 -43 39 -39 53 -39 14 -1 -77 5 -11 18 -49
29 -85 11 -36 22 -72 26 -80 4 -11 -1 -16 -17 -17 -155 -13 -737 -148 -863
-200 -54 -22 -79 -25 -145 -20 -25 2 -27 27 -2 27 9 0 30 9 46 19 l28 19 -41
7 c-38 6 -41 8 -24 21 15 12 16 15 3 23 -22 15 -8 22 56 28 59 6 59 6 29 19
-16 7 -42 13 -57 14 -17 0 -28 6 -28 14 0 8 6 14 13 13 6 0 23 1 37 1 37 3 11
21 -34 24 -28 2 -42 -3 -52 -16 -7 -11 -42 -28 -76 -40 -61 -20 -63 -22 -60
-53 2 -19 -1 -33 -7 -33 -6 0 -11 -7 -11 -15 0 -8 -6 -15 -12 -15 -9 0 -9 -3
1 -9 29 -19 -11 -38 -89 -43 -59 -4 -83 -10 -113 -31 l-38 -26 63 6 c44 3 60
2 53 -5 -15 -17 -287 -20 -280 -4 2 6 -1 12 -8 12 -7 0 -4 5 6 11 9 5 17 14
17 19 0 11 -86 11 -132 -1 -20 -5 -73 -11 -118 -13 -48 -3 -86 -9 -90 -16 -5
-7 -21 -9 -46 -5 -68 11 -124 27 -119 35 7 11 -37 21 -49 11 -16 -12 -97 -1
-89 12 4 7 0 8 -12 4 -9 -4 -23 -3 -29 2 -24 20 -136 13 -136 -8 0 -5 -14 -14
-31 -21 -29 -13 -47 -25 -106 -77 -18 -16 -39 -23 -65 -23 -22 0 -197 -7 -389
-16 -380 -17 -435 -16 -431 4 1 7 -2 21 -8 31 -9 18 -11 18 -44 2 -20 -9 -36
-25 -38 -36 -3 -18 -14 -21 -112 -29 -112 -8 -216 -1 -216 15 0 5 6 9 14 9 8
0 21 14 30 30 14 29 14 30 -7 29 -48 -4 -97 2 -97 11 0 6 10 10 22 10 21 0 21
1 3 13 -17 13 -17 14 6 20 33 9 20 16 -19 10 -18 -3 -32 -10 -31 -17 1 -6 1
-20 0 -31 -1 -15 -3 -17 -10 -6 -6 9 -11 10 -15 2 -4 -6 -12 -11 -17 -11 -6 0
-7 5 -4 10 3 6 1 10 -5 10 -7 0 -17 -13 -23 -30 -7 -17 -19 -30 -29 -30 -21 0
-34 -20 -19 -29 8 -5 6 -12 -6 -23 -14 -11 -67 -18 -228 -27 -115 -6 -256 -11
-312 -11 l-102 0 5 26 c3 14 1 23 -5 20 -9 -6 -23 17 -27 44 -1 8 -7 26 -12
40 -9 22 -11 19 -11 -27 l-1 -53 -55 0 c-29 0 -76 4 -102 9 -26 6 -78 13 -115
16 -67 7 -96 25 -39 25 17 0 33 4 36 10 3 6 15 10 25 10 18 0 40 27 40 49 0
14 -65 31 -120 32 -40 0 -103 17 -72 18 28 2 9 16 -24 19 -19 1 -47 8 -62 16
-32 16 -157 10 -128 -6 27 -15 9 -27 -31 -21 -26 4 -34 3 -29 -5 4 -7 15 -12
24 -13 40 -2 -47 -28 -95 -29 -28 0 -54 -4 -57 -9 -3 -5 -15 -7 -26 -4 -22 6
-26 -7 -8 -25 16 -16 -13 -26 -61 -19 -23 3 -44 -1 -56 -9 -19 -14 -72 -19
-99 -8 -13 5 -16 23 -16 89 0 71 3 84 17 88 17 4 17 5 1 6 -14 1 -18 10 -18
36 l0 35 65 0 c37 0 65 -4 65 -10 0 -5 -13 -10 -30 -10 -32 0 -40 -14 -15 -24
8 -3 15 -12 15 -21 0 -8 3 -14 8 -14 4 1 15 1 25 0 28 -2 9 -21 -21 -21 -15 0
-34 -5 -42 -10 -13 -8 -12 -10 3 -10 11 0 21 -9 24 -19 3 -11 17 -21 31 -24
37 -7 122 13 122 30 0 12 40 19 78 14 10 -2 12 4 7 18 -4 12 -2 21 4 21 22 0
10 20 -11 21 -45 1 14 18 66 18 48 1 49 1 31 21 -12 13 -14 20 -5 20 10 0 10
3 0 15 -8 10 -18 12 -29 6 -9 -5 -21 -6 -28 -4 -6 2 -14 -1 -18 -6 -3 -6 -21
-11 -40 -11 -18 0 -36 -6 -38 -12 -3 -8 -6 -6 -6 4 -1 11 -6 15 -16 12 -8 -4
-15 -1 -15 5 0 6 8 12 18 13 9 1 -17 4 -58 7 -52 4 -80 2 -91 -6 -8 -7 -34
-12 -57 -10 l-42 2 0 1658 0 1657 5415 0 c3603 0 5415 3 5415 10 0 7 -1813 10
-5420 10 l-5420 0 0 -3730z m7776 2385 c20 -14 34 -25 31 -25 -3 0 0 -19 8
-41 21 -57 21 -242 0 -259 -8 -6 -20 -8 -26 -4 -7 4 -35 8 -63 9 -73 3 -108
19 -104 48 2 17 9 21 27 19 13 -1 29 -8 35 -15 6 -7 10 -10 8 -8 -1 2 5 16 14
29 14 22 14 24 1 19 -13 -5 -14 -1 -7 24 7 23 5 31 -5 36 -8 3 -13 9 -10 13 3
5 0 12 -7 17 -7 4 -23 22 -35 40 -22 30 -22 32 -4 38 10 3 34 23 52 45 19 22
37 40 41 40 4 0 24 -11 44 -25z m88 -34 c4 -5 -3 -7 -14 -4 -23 6 -26 13 -6
13 8 0 17 -4 20 -9z m-2 -109 c3 -9 2 -26 -2 -37 -6 -15 -8 -10 -8 18 0 40 3
47 10 19z m-822 -89 c0 -16 -2 -15 -21 4 -12 11 -18 26 -15 32 10 15 36 -11
36 -36z m1444 -29 c8 -21 -28 -17 -47 4 -10 10 -14 21 -11 25 9 8 52 -13 58
-29z m-477 -86 c-3 -7 -5 -2 -5 12 0 14 2 19 5 13 2 -7 2 -19 0 -25z m-846
-75 c-9 -15 -11 -14 -12 12 -3 67 14 110 19 48 2 -24 -1 -51 -7 -60z m99 37
c-5 -25 -9 -66 -10 -92 0 -27 -4 -48 -10 -48 -5 0 -10 22 -10 49 0 28 -4 53
-10 56 -5 3 -10 -3 -10 -14 0 -12 -4 -21 -9 -21 -11 0 -21 25 -21 51 0 16 3
18 19 9 26 -13 31 -13 31 3 0 13 30 60 35 55 2 -2 -1 -23 -5 -48z m845 34 c9
-4 13 -10 8 -13 -5 -3 -17 -17 -27 -31 l-18 -25 6 25 c3 14 6 31 6 38 0 14 2
14 25 6z m-209 -38 c12 5 7 -5 -16 -29 -36 -38 -53 -47 -44 -23 9 23 -16 29
-37 10 -11 -10 -19 -12 -19 -6 0 16 -57 15 -63 0 -2 -7 -8 -10 -12 -6 -4 4 1
20 11 37 16 27 24 30 73 33 35 2 62 -2 72 -10 9 -7 24 -9 35 -6z m34 -25 c-11
-22 -30 -28 -30 -11 0 15 34 52 38 41 2 -6 -2 -19 -8 -30z m-843 -73 c-3 -8
-6 -5 -6 6 -1 11 2 17 5 13 3 -3 4 -12 1 -19z m114 -85 c4 -13 5 -23 1 -23 -9
0 -52 93 -52 111 1 13 32 -42 51 -88z m-70 12 c6 15 8 10 8 -21 1 -26 9 -51
22 -68 19 -24 19 -46 0 -46 -13 0 -59 102 -65 145 l-6 40 16 -35 c15 -32 17
-33 25 -15z m952 -168 c-10 -16 40 -57 69 -57 35 0 71 -17 63 -30 -4 -6 2 -7
12 -3 15 5 14 2 -4 -17 -22 -23 -23 -23 -80 -7 -33 9 -79 25 -104 35 l-46 20
7 44 c3 23 16 61 27 83 11 22 26 58 34 80 l14 40 6 -90 c4 -49 4 -94 2 -98z
m-823 42 c15 -28 5 -23 -15 7 -9 15 -12 23 -6 20 6 -4 16 -16 21 -27z m870
-78 c13 -11 12 -12 -6 -3 -12 7 -24 19 -28 29 -5 16 -4 16 7 3 7 -8 19 -21 27
-29z m-651 -103 c2 -16 -15 -6 -59 32 l-45 40 52 -32 c28 -18 52 -36 52 -40z
m431 -2 c0 -3 -4 -8 -10 -11 -5 -3 -10 -1 -10 4 0 6 5 11 10 11 6 0 10 -2 10
-4z m-691 -154 c19 -19 44 -37 55 -42 36 -13 -87 -22 -182 -14 -48 4 -93 7
-99 5 -25 -4 -12 15 22 33 19 10 51 43 72 73 l37 55 30 -39 c17 -21 46 -53 65
-71z m611 77 c-11 -8 -5 -9 25 -3 94 17 168 -1 226 -53 35 -32 39 -40 33 -67
-8 -39 -33 -68 -52 -61 -11 4 -13 -1 -8 -25 5 -27 1 -33 -26 -50 -18 -10 -38
-29 -45 -42 -11 -21 -12 -20 -13 24 0 26 -4 50 -10 53 -6 4 -10 -12 -10 -42 0
-45 -3 -50 -34 -67 -19 -10 -39 -15 -45 -12 -5 4 -13 28 -17 54 -5 33 -15 54
-35 73 -23 20 -26 28 -16 38 10 11 3 13 -36 8 -26 -2 -50 -1 -53 4 -3 5 3 9
12 9 15 0 15 3 -4 20 -34 32 -27 52 32 88 30 19 57 40 60 48 3 8 11 14 18 14
9 0 9 -3 -2 -11z m-361 -108 c10 -7 8 -11 -10 -16 -13 -4 -27 -13 -31 -19 -11
-17 -16 -3 -7 22 9 23 25 28 48 13z m203 -31 c-2 -16 -8 -27 -13 -24 -5 3 -12
-2 -15 -10 -3 -9 -10 -16 -16 -16 -5 0 -6 5 -3 10 3 6 -1 10 -10 10 -14 0 -14
2 1 24 8 14 25 27 37 29 12 2 22 5 23 6 0 0 -1 -12 -4 -29z m-732 0 c0 -5 -2
-10 -4 -10 -3 0 -8 5 -11 10 -3 6 -1 10 4 10 6 0 11 -4 11 -10z m-98 -70 c31
-20 70 -43 87 -50 17 -7 28 -17 25 -22 -3 -5 2 -19 13 -30 18 -21 18 -21 -16
-15 -30 6 -32 5 -20 -9 11 -13 9 -14 -17 -9 -16 4 -35 9 -43 11 -11 4 -12 2
-1 -11 11 -13 8 -15 -18 -15 -36 0 -69 36 -76 84 -16 105 -16 117 -4 110 7 -4
38 -24 70 -44z m265 44 c-3 -3 -12 -4 -19 -1 -8 3 -5 6 6 6 11 1 17 -2 13 -5z
m1073 -4 c0 -5 -4 -10 -10 -10 -5 0 -10 5 -10 10 0 6 5 10 10 10 6 0 10 -4 10
-10z m-1153 -21 c5 -16 12 -20 31 -16 l26 5 -25 -19 c-37 -29 -54 -24 -56 16
-3 38 15 49 24 14z m166 14 c-7 -2 -21 -2 -30 0 -10 3 -4 5 12 5 17 0 24 -2
18 -5z m515 -49 c32 -9 72 -82 72 -130 l-1 -39 -19 24 c-11 13 -20 31 -20 41
0 39 -22 79 -53 94 -32 16 -21 21 21 10z m708 -9 c-10 -8 -24 -11 -30 -8 -6 4
0 10 14 14 36 10 37 10 16 -6z m104 -5 c0 -5 -8 -10 -17 -10 -15 0 -16 2 -3
10 19 12 20 12 20 0z m-192 -22 c-3 -7 -22 -16 -44 -21 -119 -26 -172 -41
-200 -58 -17 -10 -41 -19 -54 -19 -12 0 -77 -16 -144 -35 -66 -19 -134 -37
-149 -40 -15 -3 -25 -10 -22 -15 9 -15 -12 -21 -40 -10 -30 11 -32 47 -2 42 9
-2 17 2 17 8 0 6 10 8 25 4 23 -6 220 54 301 91 17 8 58 17 90 19 32 3 86 14
119 25 71 23 108 26 103 9z m-813 -18 c-3 -5 -12 -10 -18 -10 -7 0 -6 4 3 10
19 12 23 12 15 0z m-215 -10 c0 -5 -4 -10 -10 -10 -5 0 -10 5 -10 10 0 6 5 10
10 10 6 0 10 -4 10 -10z m-558 -129 c-3 -11 2 -9 19 6 17 15 32 20 47 16 29
-7 28 -13 -7 -46 -17 -15 -33 -36 -36 -47 -4 -11 -15 -20 -26 -20 -10 0 -19
-4 -19 -10 0 -5 -5 -10 -11 -10 -8 0 -10 15 -7 45 6 52 -7 52 -16 0 -7 -37
-22 -53 -37 -38 -13 13 8 78 37 112 21 26 28 29 44 19 10 -7 16 -18 12 -27z
m745 17 c-3 -8 -6 -5 -6 6 -1 11 2 17 5 13 3 -3 4 -12 1 -19z m601 2 c4 -21
-55 -80 -79 -80 -11 0 -23 -10 -28 -23 -5 -13 -24 -31 -43 -41 -18 -9 -53 -27
-78 -41 -49 -27 -92 -32 -108 -12 -21 26 -25 77 -7 97 9 10 18 27 20 37 6 31
8 29 14 -12 5 -33 10 -41 30 -43 14 -2 30 2 35 10 6 7 22 14 36 16 14 1 44 21
67 44 64 63 133 86 141 48z m-1545 -32 c-11 -13 -26 -33 -32 -45 -11 -22 -41
-32 -41 -14 0 10 76 81 87 81 3 0 -3 -10 -14 -22z m353 -39 c-11 -41 -41 -55
-48 -22 -3 15 -6 14 -25 -6 -20 -21 -43 -22 -43 -1 0 15 53 72 74 80 11 4 28
3 37 -3 13 -8 14 -16 5 -48z m989 -7 c-9 -9 -26 41 -19 56 5 13 9 8 15 -18 4
-19 6 -36 4 -38z m-1581 18 c-6 -6 -10 -2 -11 12 -2 16 1 18 10 9 7 -7 8 -14
1 -21z m682 9 c3 -6 17 -9 30 -6 22 4 23 3 8 -24 -19 -37 -49 -40 -40 -4 5 20
3 23 -11 18 -10 -3 -23 -12 -30 -20 -6 -8 -19 -13 -28 -11 -15 3 -14 6 5 31
22 28 54 36 66 16z m281 -7 c-24 -26 -59 -111 -53 -127 2 -7 -1 -19 -9 -25
-20 -17 -27 3 -19 58 5 34 16 56 40 80 34 34 71 47 41 14z m205 -4 c-7 -7 -12
-8 -12 -2 0 14 12 26 19 19 2 -3 -1 -11 -7 -17z m-334 -4 c25 -8 0 -25 -27
-19 -19 4 -32 1 -41 -10 -7 -8 -19 -15 -26 -15 -21 0 -17 27 8 44 20 14 42 14
86 0z m145 -49 c-3 -9 -8 -14 -10 -11 -3 3 -2 9 2 15 9 16 15 13 8 -4z m-3
-46 c0 -5 -4 -9 -10 -9 -5 0 -10 7 -10 16 0 8 5 12 10 9 6 -3 10 -10 10 -16z
m47 -95 c8 -21 -13 -42 -28 -27 -13 13 -5 43 11 43 6 0 13 -7 17 -16z m80
-126 c-26 -16 -94 58 -83 89 5 13 16 7 50 -33 27 -30 40 -52 33 -56z m-1459
-79 c-3 -8 -7 -3 -11 10 -4 17 -3 21 5 13 5 -5 8 -16 6 -23z m57 21 c3 -5 1
-10 -4 -10 -6 0 -11 5 -11 10 0 6 2 10 4 10 3 0 8 -4 11 -10z m635 -95 c-7 -8
-16 -15 -21 -15 -5 0 -6 7 -3 15 4 8 13 15 21 15 13 0 13 -3 3 -15z m-1022
-212 c8 -13 23 -16 72 -14 54 2 62 0 56 -14 -3 -9 0 -18 9 -21 8 -4 15 -12 15
-20 0 -22 -85 -19 -108 4 -25 25 -129 54 -181 50 -60 -4 -73 -26 -42 -68 20
-28 21 -31 3 -21 -11 6 -21 9 -23 7 -2 -3 -24 -7 -49 -9 -59 -7 -397 -95 -432
-112 -16 -8 -30 -9 -34 -4 -3 5 -17 9 -32 9 -55 1 3 25 121 49 91 19 114 28
109 39 -4 12 8 14 77 10 63 -4 84 -2 88 8 5 13 26 20 106 38 15 4 27 13 27 21
0 33 44 47 197 64 7 0 16 -7 21 -16z m346 8 c11 -17 -129 -36 -164 -23 l-25
10 25 6 c62 14 157 18 164 7z m841 -32 c-8 -12 -35 -12 -35 0 0 11 22 20 33
14 4 -2 5 -9 2 -14z m-45 -9 c0 -5 -2 -10 -4 -10 -3 0 -8 5 -11 10 -3 6 -1 10
4 10 6 0 11 -4 11 -10z m-1401 -4 c-2 -2 -96 -28 -209 -56 -113 -29 -212 -56
-220 -60 -8 -4 -35 -4 -60 -1 l-45 7 27 15 c25 13 12 14 -150 13 l-177 -2 195
12 c107 7 211 18 230 24 19 7 52 12 72 12 20 0 40 5 43 10 4 6 23 10 43 9 47
-2 195 10 201 16 2 3 16 5 29 5 14 0 23 -2 21 -4z m514 -31 c38 -20 119 -43
133 -38 6 2 17 -3 24 -12 8 -9 8 -15 2 -15 -6 0 -13 4 -17 9 -3 6 -16 4 -32
-4 -26 -14 -54 -8 -68 15 -3 6 -13 10 -21 10 -8 0 -12 -4 -9 -10 3 -5 -3 -10
-14 -10 -12 0 -21 7 -21 16 0 8 -13 20 -30 25 -16 6 -30 15 -30 20 0 14 52 10
83 -6z m-5303 -35 c0 -5 -2 -10 -4 -10 -3 0 -8 5 -11 10 -3 6 -1 10 4 10 6 0
11 -4 11 -10z m40 0 c0 -5 -4 -10 -10 -10 -5 0 -10 5 -10 10 0 6 5 10 10 10 6
0 10 -4 10 -10z m45 0 c-3 -5 -13 -10 -21 -10 -8 0 -12 5 -9 10 3 6 13 10 21
10 8 0 12 -4 9 -10z m60 0 c3 -5 -3 -10 -14 -10 -11 0 -23 5 -26 10 -3 6 3 10
14 10 11 0 23 -4 26 -10z m5896 -34 c-6 -14 -12 -26 -14 -26 -6 0 -1 35 7 48
13 21 17 7 7 -22z m-3226 14 c17 -8 16 -8 -7 -7 -16 1 -28 5 -28 9 0 10 9 9
35 -2z m3079 -16 c5 -14 4 -15 -9 -4 -17 14 -19 20 -6 20 5 0 12 -7 15 -16z
m-6171 -1 c-7 -2 -19 -2 -25 0 -7 3 -2 5 12 5 14 0 19 -2 13 -5z m445 -2 c38
-23 -94 -29 -173 -7 l-50 14 105 1 c58 0 111 -3 118 -8z m3385 2 c-7 -2 -21
-2 -30 0 -10 3 -4 5 12 5 17 0 24 -2 18 -5z m1762 -80 c4 -20 3 -33 -3 -33
-10 0 -33 86 -31 113 1 17 25 -41 34 -80z m-164 40 c-6 -10 -24 -34 -41 -53
-23 -26 -30 -30 -25 -14 5 20 3 21 -53 12 -34 -5 -68 -5 -83 0 l-24 9 30 6
c17 3 61 9 98 12 50 5 73 12 85 26 21 24 26 24 13 2z m577 -100 c-6 -7 2 -25
24 -50 18 -21 33 -40 35 -42 1 -2 11 2 20 10 16 13 17 12 5 -3 -12 -15 -9 -22
24 -52 21 -20 68 -50 103 -68 52 -26 76 -33 127 -33 53 0 61 -2 51 -14 -9 -12
-9 -13 1 -7 23 14 12 -10 -25 -54 -40 -47 -85 -70 -134 -70 -36 0 -45 9 -151
143 -34 42 -66 76 -72 74 -19 -7 -9 -67 22 -129 23 -48 28 -67 22 -89 -10 -34
-5 -38 59 -46 l50 -6 -15 -28 c-8 -16 -11 -29 -7 -29 5 -1 -7 -9 -26 -18 -28
-14 -34 -23 -37 -57 -11 -126 -4 -229 21 -288 l14 -34 -42 4 c-27 3 -57 -1
-81 -11 -21 -9 -50 -16 -65 -16 l-26 0 25 13 c15 8 26 23 28 39 3 22 -5 33
-45 62 -118 87 -238 80 -235 -14 1 -49 -16 -34 -36 30 -13 44 -21 57 -29 49
-8 -8 -14 -6 -21 7 -13 24 -22 103 -12 109 4 2 7 17 8 32 1 41 28 111 55 143
13 15 27 47 31 69 4 29 19 55 45 84 21 23 48 60 59 82 21 42 72 96 72 77 0 -6
-11 -19 -25 -28 -13 -9 -29 -32 -35 -53 -14 -51 -12 -133 4 -156 22 -32 26
-87 8 -108 -20 -23 -42 -84 -42 -120 0 -16 -5 -37 -10 -47 -8 -16 -7 -18 4
-14 9 3 22 36 31 79 9 40 28 88 41 106 13 18 24 38 24 43 1 30 15 35 55 21 58
-20 72 -19 52 3 -10 10 -17 26 -17 36 0 20 -20 60 -55 112 -30 44 -31 54 -6
47 30 -8 81 25 97 62 18 44 18 79 -1 115 -12 22 -13 39 -6 70 5 22 6 40 3 40
-3 0 3 10 14 21 19 21 19 21 25 -32 3 -30 2 -59 -3 -66z m-5616 101 c21 -4 35
-10 33 -14 -6 -10 50 -30 85 -30 15 0 38 -8 51 -19 22 -18 22 -19 3 -24 -10
-3 -48 -5 -83 -5 -35 0 -66 -4 -70 -10 -10 -16 -145 -42 -213 -41 -76 1 -102
9 -106 31 -2 12 8 18 38 23 30 5 40 11 38 23 -2 10 4 18 12 18 41 4 42 7 5 19
l-40 13 35 2 c19 1 46 6 60 10 31 10 103 12 152 4z m-637 -35 c-4 -5 3 -10 14
-10 12 -1 26 -3 31 -4 6 -1 37 -3 71 -4 44 -1 59 -4 56 -13 -2 -9 -26 -13 -68
-14 -35 -1 -75 -6 -89 -11 -26 -11 -50 -7 -50 7 0 4 10 11 23 15 l22 8 -22 4
c-17 3 -23 11 -23 29 0 22 2 23 20 14 11 -6 18 -15 15 -21z m4328 24 c-13 -2
-35 -2 -50 0 -16 2 -5 4 22 4 28 0 40 -2 28 -4z m902 -38 c-88 -18 -198 -43
-245 -55 -47 -13 -93 -22 -102 -22 -10 0 -18 -4 -18 -10 0 -17 116 -4 185 21
61 22 149 28 160 11 3 -5 13 -6 22 -3 15 6 14 7 -3 13 -38 14 97 37 181 30 21
-1 -52 -27 -95 -34 -14 -2 -32 -6 -40 -9 -8 -4 -95 -22 -194 -41 -98 -20 -181
-38 -184 -41 -3 -3 3 -13 14 -23 17 -17 24 -17 65 -7 29 8 52 9 62 3 10 -5 64
-3 141 7 113 14 226 20 156 8 -194 -32 -412 -63 -480 -68 -46 -3 -87 -9 -90
-13 -3 -4 -38 -9 -79 -10 -40 -1 -77 -5 -82 -8 -5 -3 -9 0 -9 5 0 6 15 11 33
11 18 0 41 6 51 13 15 11 4 13 -75 10 -52 -2 -128 -8 -169 -14 -41 -6 -140
-15 -220 -20 -222 -13 -381 -28 -420 -39 -20 -5 -76 -12 -125 -15 -50 -4 -133
-13 -185 -20 -52 -8 -142 -17 -200 -20 -58 -4 -114 -9 -125 -12 -18 -6 -18 -7
5 -13 24 -7 -30 -12 -280 -26 -57 -3 -114 -10 -127 -15 -13 -5 -51 -6 -85 -2
-42 4 -59 3 -55 -4 11 -18 -17 -22 -106 -16 -63 4 -96 1 -128 -10 -37 -13
-191 -25 -364 -27 -17 0 -17 -2 -5 -10 11 -7 4 -10 -27 -10 -23 0 -43 -4 -45
-9 -1 -6 -47 -14 -100 -20 -53 -5 -106 -15 -117 -21 -12 -6 -47 -10 -79 -9
-85 3 -114 0 -107 -11 4 -6 -24 -10 -77 -10 -57 -1 -89 -5 -102 -15 -18 -14
-14 -15 46 -15 38 0 68 -5 70 -11 2 -7 29 -7 88 0 47 5 135 13 195 16 61 3
128 8 150 10 77 9 521 45 680 55 88 5 232 17 320 25 88 8 230 19 315 25 173
11 493 36 585 47 33 3 87 5 120 5 57 -2 59 -1 40 14 -12 10 -14 14 -5 11 8 -2
23 0 32 5 17 8 124 25 228 34 30 3 60 11 65 18 6 7 19 13 30 14 11 1 47 5 80
8 36 4 63 12 68 20 5 10 27 14 69 14 50 0 59 -3 54 -15 -6 -17 27 -34 66 -33
44 1 223 18 248 23 30 6 481 7 488 1 2 -3 -8 -30 -22 -62 -14 -31 -26 -62 -26
-69 0 -8 43 -23 111 -40 101 -25 114 -31 147 -67 35 -38 38 -39 86 -32 l50 6
-38 -48 c-225 -294 -349 -672 -349 -1064 0 -241 42 -417 138 -577 29 -48 52
-89 50 -91 -1 -2 -50 -14 -107 -27 -157 -35 -306 -80 -468 -141 l-145 -54 -90
25 c-49 14 -169 45 -265 70 -201 52 -213 56 -145 50 l50 -5 -39 15 c-22 8 -50
17 -63 20 -13 2 -33 7 -44 10 -12 4 -24 3 -28 -2 -3 -5 -17 -6 -31 -2 -24 7
-24 7 5 9 l30 2 -35 14 c-34 14 -35 14 -5 10 17 -2 64 -13 105 -26 41 -12 101
-29 132 -37 34 -9 55 -20 51 -26 -4 -6 0 -8 11 -4 10 4 27 7 39 7 15 1 9 6
-18 15 -21 8 -41 12 -43 10 -2 -2 -23 4 -45 14 -23 10 -50 17 -59 15 -10 -1
-18 1 -18 6 0 4 -24 12 -52 19 -29 6 -87 21 -128 32 -41 12 -88 21 -103 21
-17 -1 -25 3 -21 9 4 8 -1 9 -17 4 -13 -4 -21 -4 -16 1 7 8 -79 34 -225 69
-43 11 -73 22 -67 26 6 3 29 2 51 -2 21 -5 43 -7 49 -4 5 4 9 1 9 -5 0 -6 8
-9 18 -6 9 3 77 -7 150 -23 72 -15 132 -25 132 -21 0 4 -15 10 -32 13 -72 13
-98 20 -98 26 0 4 -10 8 -23 9 -13 1 -38 8 -56 15 l-33 14 26 5 c17 3 29 0 34
-9 6 -10 14 -11 33 -4 23 9 23 10 2 10 -12 1 -25 6 -28 11 -3 6 -18 7 -32 4
-18 -5 -24 -3 -19 5 10 16 0 14 -19 -6 -13 -13 -18 -14 -25 -3 -4 7 -15 10
-25 6 -20 -7 -67 3 -60 14 5 8 -5 9 -71 12 -26 1 -30 4 -26 23 3 17 -2 24 -19
28 -30 8 -48 -4 -21 -14 12 -5 22 -13 22 -19 0 -16 -14 -12 -38 10 -12 11 -26
20 -31 20 -6 0 -8 6 -5 14 4 9 -9 17 -40 25 -39 10 -46 15 -46 36 0 14 -4 25
-10 25 -5 0 -10 -4 -10 -10 0 -5 -5 -10 -11 -10 -6 0 -9 7 -5 15 3 9 0 15 -9
15 -8 0 -15 -4 -15 -9 0 -5 -8 -8 -17 -6 -10 2 -35 7 -55 10 -30 5 -36 9 -31
23 6 14 4 15 -9 5 -12 -10 -25 -10 -66 -1 -29 7 -52 16 -52 21 0 5 10 5 23 1
29 -10 167 -11 167 -2 0 4 7 4 17 1 12 -5 14 -3 8 7 -6 10 -2 11 16 7 139 -35
213 -49 217 -38 2 6 8 11 14 11 6 0 8 -7 4 -15 -3 -8 -1 -15 4 -15 6 0 10 4
10 9 0 9 43 7 60 -4 6 -4 23 -8 38 -10 15 -2 45 -6 67 -9 22 -3 84 -15 138
-27 54 -11 101 -19 104 -16 2 3 -15 10 -39 14 -28 6 -42 14 -40 23 2 10 0 11
-10 3 -8 -6 -21 -7 -33 -2 -11 4 -33 8 -48 8 -17 1 -26 5 -22 11 4 7 -3 8 -21
4 -19 -5 -25 -3 -20 4 7 12 -40 29 -51 18 -4 -3 3 -6 15 -6 12 0 22 -4 22 -9
0 -12 -82 9 -98 26 -17 16 -32 17 -32 1 0 -7 -9 -2 -20 12 -10 14 -22 21 -26
17 -4 -4 -2 -7 4 -7 7 0 12 -4 12 -9 0 -14 -41 0 -47 15 -3 8 -15 14 -27 14
-17 0 -18 -2 -6 -10 13 -8 12 -10 -2 -10 -10 0 -18 7 -18 16 0 10 -6 14 -15
11 -8 -4 -17 -1 -21 5 -4 7 -10 6 -16 -3 -8 -11 -9 -11 -5 1 2 8 11 14 21 12
9 -2 16 1 16 6 0 5 -20 15 -45 21 -25 6 -45 16 -45 21 0 5 -7 7 -16 3 -9 -3
-19 -1 -23 5 -4 6 -21 12 -39 14 -34 2 -42 15 -17 24 8 4 21 1 29 -5 7 -6 22
-8 31 -4 12 4 16 3 11 -5 -4 -6 1 -11 11 -11 19 0 68 -7 148 -21 28 -5 57 -9
65 -9 23 -1 83 -10 98 -16 6 -2 12 -1 12 4 0 4 -42 16 -92 25 -51 10 -100 20
-108 23 -16 7 -32 11 -65 16 -11 2 -36 7 -55 12 -19 5 -38 10 -42 11 -5 1 -19
2 -33 3 -14 0 -25 4 -25 9 0 9 52 9 68 -1 6 -5 12 -6 12 -3 0 2 3 11 6 19 6
17 -49 30 -108 26 -7 0 -24 2 -38 6 -54 13 -91 13 -86 -1 3 -8 1 -14 -4 -14
-6 0 -10 6 -10 13 0 17 -63 37 -114 37 -44 0 -126 21 -126 33 0 5 26 6 58 2
41 -5 53 -3 42 4 -8 6 -25 11 -37 11 -12 0 -25 5 -28 10 -3 6 -19 10 -36 10
-16 0 -29 5 -29 10 0 6 -10 10 -22 9 -22 0 -22 -1 -3 -9 18 -8 18 -9 2 -9 -10
-1 -25 6 -33 14 -11 11 -21 12 -40 5 -33 -13 -54 -13 -34 0 21 13 11 19 -71
35 -87 18 -122 32 -114 44 3 5 -5 11 -17 13 -13 2 -22 9 -21 15 2 7 -4 10 -13
6 -8 -3 -20 2 -27 10 -7 9 -25 18 -42 22 -24 4 -26 3 -10 -4 17 -8 17 -10 3
-10 -9 -1 -21 5 -25 13 -8 13 -52 26 -104 29 -15 1 -25 7 -23 12 6 14 85 11
114 -5 17 -9 25 -10 28 -1 2 6 15 11 28 11 14 0 23 -4 19 -9 -9 -15 14 -24 30
-11 8 6 30 9 52 6 67 -10 -11 10 -117 29 -52 10 -99 21 -105 25 -5 4 -26 8
-46 8 -20 1 -48 6 -63 12 -34 13 -49 13 -41 0 3 -5 -1 -10 -9 -10 -9 0 -13 6
-10 14 4 11 -10 13 -68 11 -54 -1 -81 3 -105 16 -31 18 -32 18 -38 -1 -7 -22
-27 -28 -22 -7 1 6 -4 11 -11 9 -7 -1 -22 3 -34 9 -18 10 -20 9 -15 -5 4 -9 2
-16 -3 -16 -6 0 -10 6 -10 13 0 9 -26 17 -76 25 -70 11 -78 11 -90 -5 -7 -10
-14 -13 -14 -7 0 19 -41 55 -53 47 -16 -10 -60 -3 -69 11 -5 8 -8 7 -8 -3 0
-11 -3 -11 -16 0 -13 10 -17 10 -25 -2 -8 -13 -12 -9 -7 9 1 4 -11 10 -28 13
-16 3 -28 11 -26 18 1 7 -2 10 -8 6 -5 -3 -10 -14 -11 -23 0 -11 -3 -12 -6 -4
-2 7 -22 12 -44 12 -22 0 -38 4 -34 9 8 15 -15 25 -28 12 -16 -16 -30 -14 -23
4 3 9 0 15 -8 15 -8 0 -16 -5 -18 -11 -3 -8 -13 -9 -28 -4 -22 7 -22 8 -6 20
11 8 13 15 7 20 -6 3 -11 3 -11 -2 0 -4 -11 -13 -25 -19 -19 -9 -27 -9 -35 1
-6 7 -20 15 -31 18 -20 5 -20 5 -3 -14 21 -23 7 -25 -26 -2 -17 12 -25 13 -28
5 -2 -7 -8 -12 -14 -12 -6 0 -7 7 -4 16 6 14 4 15 -9 4 -13 -11 -16 -11 -13 0
4 16 -63 33 -76 20 -5 -5 -14 -6 -20 -1 -17 13 -78 22 -71 11 3 -6 -1 -10 -9
-10 -9 0 -16 5 -16 10 0 6 -9 10 -20 10 -11 0 -20 5 -20 11 0 7 -12 10 -29 7
-24 -4 -30 0 -34 19 -2 13 0 23 4 23 5 0 9 -7 9 -15 0 -19 16 -20 23 -2 4 11
18 12 64 6 32 -4 82 -10 111 -13 29 -3 85 -13 125 -21 39 -8 81 -15 92 -14
l20 0 -20 9 c-11 5 -33 12 -50 16 l-30 7 25 7 c15 4 -3 7 -47 7 -51 1 -77 6
-88 16 -21 21 -19 30 5 22 11 -4 20 -2 20 4 0 14 -37 14 -45 1 -10 -17 -25
-11 -18 8 5 14 3 15 -8 5 -7 -7 -28 -13 -47 -13 -23 0 -32 4 -29 13 2 6 14 11
26 10 11 -2 21 2 21 7 0 16 -30 24 -43 11 -13 -13 -31 -15 -23 -2 10 16 -20
40 -59 45 -22 3 -34 3 -27 0 20 -9 14 -23 -8 -17 -11 3 -17 9 -14 14 5 8 -18
14 -40 10 -5 -1 -55 5 -110 14 -56 8 -128 17 -161 20 -33 3 -94 12 -135 20
-73 14 -150 25 -180 27 -8 0 -37 5 -65 10 -27 6 -61 11 -75 12 -24 1 -25 3
-25 76 0 62 3 74 15 72 8 -2 29 -3 45 -2 17 1 83 3 149 3 118 1 127 8 31 26
-31 6 -18 8 53 8 56 0 98 5 107 13 7 6 31 10 52 9 21 -2 44 0 51 5 7 4 12 2
12 -5 0 -7 7 -4 15 7 13 16 16 17 25 4 8 -13 10 -13 10 3 0 15 12 17 103 17
57 0 130 5 162 11 33 6 71 12 85 14 14 2 25 5 25 6 0 1 9 3 20 4 11 2 54 11
95 20 54 13 137 18 300 21 245 5 302 10 279 25 -8 5 -9 9 -4 10 6 0 35 2 65 5
30 3 73 6 95 8 22 1 65 7 95 14 79 16 220 35 255 34 23 -1 26 1 15 8 -11 7 -6
10 20 11 19 0 49 2 65 5 17 2 50 6 75 8 25 3 63 10 85 16 34 8 149 24 245 33
14 1 27 5 31 9 3 4 23 10 45 12 87 10 138 18 160 26 12 5 89 16 171 26 147 16
218 32 129 29 -70 -2 -55 12 22 21 37 3 76 10 87 14 18 7 18 8 -7 15 -15 4
-31 4 -36 1 -5 -3 -15 1 -22 9 -7 8 -20 15 -29 15 -14 0 -14 -2 -1 -10 12 -8
10 -10 -8 -10 -13 0 -21 4 -17 9 3 5 -8 9 -25 9 -17 -1 -33 1 -35 4 -9 8 493
30 1398 59 215 8 369 16 357 21 -21 8 -19 28 3 28 7 0 24 7 39 14 15 8 98 22
185 31 87 9 181 20 208 24 130 22 103 6 -40 -24z m-5068 9 c-3 -3 -12 -4 -19
-1 -8 3 -5 6 6 6 11 1 17 -2 13 -5z m2998 -13 c32 -7 23 -9 -50 -9 -61 0 -80
3 -60 8 40 10 63 10 110 1z m-171 -10 c7 -10 -145 -19 -414 -26 -251 -5 -208
11 60 23 275 13 348 13 354 3z m1689 2 c-7 -2 -21 -2 -30 0 -10 3 -4 5 12 5
17 0 24 -2 18 -5z m1807 -35 c0 -7 -61 -30 -67 -25 -2 2 9 17 23 32 21 23 28
25 35 14 5 -8 9 -17 9 -21z m-4195 2 c14 -6 0 -9 -45 -9 -45 0 -59 3 -45 9 11
5 31 9 45 9 14 0 34 -4 45 -9z m3521 -82 c-24 -55 -31 10 -9 72 4 10 8 6 14
-13 5 -18 3 -39 -5 -59z m83 31 c20 -10 30 -18 23 -19 -19 0 -79 26 -86 39 -8
12 9 7 63 -20z m274 11 c-3 -11 -9 -17 -15 -14 -5 3 -4 12 3 20 16 19 18 18
12 -6z m145 -18 c7 -22 -13 -12 -33 16 l-19 27 24 -16 c13 -9 26 -21 28 -27z
m-4728 17 c62 -3 -85 -17 -250 -22 -101 -4 -141 -2 -115 3 44 10 266 27 305
24 14 -2 41 -4 60 -5z m-1510 -20 c9 -5 -8 -9 -47 -9 -47 0 -63 4 -63 14 0 10
11 12 48 8 26 -2 54 -8 62 -13z m950 -17 c0 -5 -33 -9 -72 -9 -56 0 -65 1 -38
7 50 10 110 11 110 2z m5064 0 c33 -6 37 -9 24 -19 -12 -10 -32 -9 -99 6 l-84
19 60 1 c33 0 78 -3 99 -7z m-5504 -33 c-67 -11 -239 -11 -220 1 8 5 71 9 140
9 96 -1 115 -3 80 -10z m925 -9 c-11 -5 -63 -8 -115 -8 -67 0 -85 3 -60 8 51
11 200 11 175 0z m4681 -27 c-8 -15 -15 -22 -16 -15 0 14 22 53 28 47 2 -2 -3
-16 -12 -32z m-4918 10 c-15 -2 -42 -2 -60 0 -18 2 -6 4 27 4 33 0 48 -2 33
-4z m-358 -23 c-18 -11 -74 -11 -110 0 -18 6 -3 8 50 9 52 0 70 -2 60 -9z
m2180 -20 c0 -5 -19 -9 -42 -9 -40 1 -41 2 -13 9 44 11 55 11 55 0z m3070 0
c0 -5 -5 -10 -11 -10 -5 0 -7 5 -4 10 3 6 8 10 11 10 2 0 4 -4 4 -10z m-3160
-4 c0 -11 -19 -15 -25 -6 -3 5 1 10 9 10 9 0 16 -2 16 -4z m1577 -12 c-3 -3
-12 -4 -19 -1 -8 3 -5 6 6 6 11 1 17 -2 13 -5z m1723 -66 c0 -14 -18 -9 -24 8
-11 28 -6 39 9 20 8 -11 15 -23 15 -28z m504 14 c2 -4 0 -14 -5 -22 -8 -13
-10 -13 -19 0 -5 8 -10 18 -10 23 0 10 28 9 34 -1z m427 -85 c-10 -9 -11 -8
-5 6 3 10 9 15 12 12 3 -3 0 -11 -7 -18z m-821 -59 c0 -3 12 -11 28 -16 23 -9
16 -11 -42 -11 l-68 -1 6 26 c4 15 2 32 -5 40 -7 8 -9 18 -5 22 4 4 13 -1 20
-11 19 -24 29 -21 16 6 -7 13 0 9 19 -13 17 -19 31 -38 31 -42z m-2663 16 c-3
-3 -12 -4 -19 -1 -8 3 -5 6 6 6 11 1 17 -2 13 -5z m3165 -297 c-10 -11 -25
-17 -39 -14 -25 5 -29 -3 -11 -21 20 -20 51 -13 87 21 21 20 32 25 28 15 -4
-10 -3 -18 2 -18 4 0 13 -11 19 -25 15 -33 -7 -87 -43 -103 -22 -10 -25 -15
-16 -26 9 -11 9 -16 1 -21 -6 -4 -9 -14 -6 -22 3 -8 2 -12 -3 -8 -5 3 -11 0
-13 -7 -2 -6 -10 -8 -16 -4 -24 15 -47 73 -53 136 l-6 65 -13 -32 c-8 -18 -18
-33 -23 -33 -4 0 -5 5 -2 10 3 6 2 10 -3 10 -5 0 -6 14 -4 31 6 38 44 64 95
64 34 0 35 -1 19 -18z m-1132 0 c0 -2 -10 -12 -22 -23 l-23 -19 19 23 c18 21
26 27 26 19z m1480 -117 c0 -5 -5 -10 -11 -10 -5 0 -7 5 -4 10 3 6 8 10 11 10
2 0 4 -4 4 -10z m-254 -28 c-4 -10 0 -27 8 -37 11 -16 17 -17 28 -7 13 10 14
6 5 -38 -7 -38 -14 -50 -28 -50 -24 0 -49 38 -49 75 0 17 7 41 16 53 18 27 27
29 20 4z m199 -52 c3 -5 -1 -10 -9 -10 -9 0 -16 5 -16 10 0 6 4 10 9 10 6 0
13 -4 16 -10z m-583 -22 c-7 -7 -12 -8 -12 -2 0 14 12 26 19 19 2 -3 -1 -11
-7 -17z m-606 -39 c3 -6 15 -8 26 -6 20 6 26 4 85 -27 17 -9 39 -16 48 -16 9
0 14 -4 10 -9 -3 -6 7 -9 22 -8 18 1 30 -5 37 -19 6 -11 17 -19 24 -16 7 2 18
0 25 -6 7 -5 24 -12 40 -16 15 -3 27 -11 27 -17 0 -6 -7 -9 -15 -5 -21 8 -45
-3 -45 -20 0 -19 -24 -18 -40 1 -10 12 -10 15 1 15 11 0 11 2 -1 10 -10 6 -17
5 -23 -6 -11 -20 -27 -8 -27 21 0 20 -10 27 -77 49 -43 14 -79 21 -81 15 -2
-5 -9 -9 -15 -9 -7 0 -22 -15 -35 -34 -17 -24 -29 -32 -43 -29 -10 3 -19 11
-19 19 0 8 6 11 15 8 8 -4 15 -1 15 4 0 6 8 18 17 28 22 21 23 43 4 67 -12 15
-12 17 2 17 9 0 19 -5 23 -11z m-5189 -5 c-3 -3 -12 -4 -19 -1 -8 3 -5 6 6 6
11 1 17 -2 13 -5z m5758 -47 c-4 -22 1 -52 15 -90 12 -32 20 -61 17 -64 -3 -2
-15 -2 -27 2 -15 5 -20 13 -17 26 3 10 1 37 -4 60 -7 30 -6 50 3 70 17 38 20
37 13 -4z m232 17 c-3 -3 -12 -4 -19 -1 -8 3 -5 6 6 6 11 1 17 -2 13 -5z m235
-70 c-5 -27 -9 -28 -46 -14 -20 7 -26 16 -26 40 0 16 -4 30 -10 30 -5 0 -10 4
-10 8 0 5 22 -2 49 -15 41 -21 47 -28 43 -49z m-352 36 c-6 -12 -14 -19 -17
-17 -2 3 1 15 7 27 6 12 14 19 17 17 2 -3 -1 -15 -7 -27z m446 -37 c-8 -20
-34 -15 -41 8 -5 14 -1 25 12 34 16 12 19 11 26 -8 4 -11 5 -27 3 -34z m-6176
43 c0 -3 -4 -8 -10 -11 -5 -3 -10 -1 -10 4 0 6 5 11 10 11 6 0 10 -2 10 -4z
m5988 -13 c-1 -10 1 -24 5 -30 5 -9 3 -11 -6 -7 -16 6 -29 39 -19 48 11 12 23
5 20 -11z m-528 -37 c0 -9 -8 -16 -20 -16 -14 0 -20 7 -20 23 0 13 3 26 6 30
9 9 34 -19 34 -37z m-5917 27 c-7 -2 -19 -2 -25 0 -7 3 -2 5 12 5 14 0 19 -2
13 -5z m5561 -8 c-10 -8 -23 -15 -28 -15 -6 0 -1 7 10 15 10 8 23 15 28 15 6
0 1 -7 -10 -15z m707 -29 c7 4 8 -7 3 -30 -3 -20 -9 -80 -13 -134 l-6 -97 -48
0 c-27 0 -51 3 -53 7 -3 4 -11 5 -19 1 -48 -18 18 44 73 69 33 15 42 24 42 43
0 30 -17 32 -70 6 l-40 -19 0 69 c0 55 3 69 15 69 9 0 18 8 22 18 14 40 24 43
55 17 16 -14 34 -22 39 -19z m-353 -64 c21 -6 65 -16 100 -23 34 -6 62 -13 62
-15 0 -2 -7 -12 -16 -22 -15 -18 -20 -18 -82 -5 -63 13 -162 41 -171 49 -2 2
9 16 25 31 25 24 30 26 37 12 5 -9 25 -21 45 -27z m15 33 c-3 -9 -8 -14 -10
-11 -3 3 -2 9 2 15 9 16 15 13 8 -4z m-659 -1 c12 -5 13 -10 5 -26 -6 -11 -17
-17 -25 -14 -8 3 -14 1 -14 -4 0 -6 -5 -10 -11 -10 -5 0 -2 13 8 30 9 17 18
30 19 30 1 0 9 -3 18 -6z m1478 -46 c-5 -5 -14 -3 -22 7 -10 12 -10 15 4 15 9
0 17 8 17 18 1 10 3 8 6 -7 3 -13 1 -27 -5 -33z m-1412 32 c0 -5 -10 -10 -22
-9 -22 0 -22 1 -3 9 11 5 21 9 23 9 1 1 2 -3 2 -9z m1201 -10 c6 0 8 4 5 8 -3
5 9 6 27 3 l32 -5 -30 -6 c-30 -6 -30 -6 -5 -12 13 -4 22 -10 19 -13 -12 -11
-69 17 -68 33 0 11 2 12 6 5 2 -7 9 -13 14 -13z m159 -24 c0 -28 -24 -53 -35
-36 -4 6 -4 22 -1 36 8 31 36 32 36 0z m-857 -46 c8 0 20 -6 27 -14 15 -19
127 -54 165 -52 30 1 30 1 30 -56 0 -31 3 -54 7 -52 5 3 7 -14 7 -38 -1 -40
-2 -41 -9 -13 -6 23 -7 16 -8 -33 0 -51 4 -65 20 -76 11 -8 17 -19 13 -26 -5
-8 -11 -7 -23 2 -15 12 -16 11 -3 -4 8 -11 11 -28 6 -45 l-6 -26 -37 36 c-33
34 -37 42 -37 94 0 49 3 58 20 61 17 4 18 2 6 -12 -11 -14 -11 -16 3 -16 11 0
16 9 16 30 0 31 -17 39 -37 19 -11 -11 -15 5 -25 100 -3 23 -11 27 -103 46
l-100 21 -1 57 -1 58 28 -31 c15 -16 34 -30 42 -30z m-653 10 c-61 -21 -66
-23 -57 -14 9 9 80 33 97 33 8 0 -10 -9 -40 -19z m930 -13 c0 -8 -3 -16 -6
-20 -8 -8 -33 16 -27 26 7 12 33 8 33 -6z m-5200 -17 c0 -5 -5 -10 -11 -10 -5
0 -7 5 -4 10 3 6 8 10 11 10 2 0 4 -4 4 -10z m4300 -9 c0 -19 -3 -20 -65 -11
-7 1 34 21 63 29 1 1 2 -8 2 -18z m-4178 -15 c25 -8 49 -12 52 -9 3 3 31 -2
63 -12 39 -12 58 -15 61 -7 2 7 11 8 26 2 15 -5 27 -5 35 3 8 8 11 8 11 -1 0
-7 14 -12 33 -12 24 0 28 -3 17 -10 -8 -5 -12 -10 -7 -11 13 -3 22 -5 51 -12
19 -6 32 -4 36 4 5 7 13 8 21 3 8 -5 21 -9 29 -9 8 0 14 -6 12 -12 -1 -7 7
-13 18 -13 22 0 27 15 8 23 -8 4 -7 6 3 6 9 1 22 -6 29 -14 10 -12 9 -15 -4
-15 -10 0 -14 -4 -11 -10 6 -10 -56 -2 -65 9 -3 3 -29 8 -59 10 -41 2 -52 0
-46 -9 10 -16 -100 -9 -116 7 -8 8 3 8 36 1 32 -7 50 -7 57 0 12 12 -3 16 -77
27 -22 3 -60 9 -85 14 -25 5 -48 7 -52 5 -3 -2 -8 0 -10 6 -2 6 -17 12 -33 15
-17 2 -39 6 -50 9 -11 2 -28 5 -37 5 -20 1 -25 21 -5 21 6 0 33 -7 59 -14z
m4098 -5 c0 -5 -7 -11 -15 -15 -15 -5 -20 5 -8 17 9 10 23 9 23 -2z m525 -16
c-27 -8 -51 -12 -53 -10 -6 5 58 23 83 23 11 0 -2 -6 -30 -13z m445 -40 c0
-13 4 -27 10 -30 6 -4 6 -12 0 -23 -5 -9 -12 -53 -16 -96 -3 -43 -9 -74 -13
-67 -4 6 -6 22 -5 34 1 12 3 66 3 120 1 63 5 96 11 92 6 -3 10 -17 10 -30z
m-922 2 c17 -8 22 -19 22 -48 0 -34 -3 -39 -35 -49 -19 -6 -39 -19 -45 -28 -8
-13 -10 -8 -8 23 3 37 5 40 29 37 14 -2 31 4 39 12 10 13 10 16 -3 16 -8 0
-17 -5 -19 -12 -3 -7 -12 -9 -22 -5 -9 4 -14 11 -11 17 3 6 0 13 -8 16 -8 3
-13 13 -10 23 5 20 28 19 71 -2z m412 19 c0 -3 -22 -12 -48 -20 -96 -32 -189
-174 -139 -214 6 -5 64 -31 127 -57 63 -25 119 -50 123 -54 12 -12 -3 -81 -17
-81 -6 0 -54 30 -106 68 -138 99 -249 166 -298 182 -24 7 -50 19 -59 25 -14
11 -11 13 19 17 20 2 35 1 32 -3 -7 -12 10 -18 59 -24 37 -5 48 -2 56 12 5 10
22 18 38 19 20 0 28 5 27 18 -1 9 1 15 4 12 7 -7 32 13 32 26 0 5 -6 6 -12 2
-9 -5 -8 -2 1 9 8 10 16 15 19 12 3 -3 13 2 22 10 25 22 120 55 120 41z m677
-38 c-3 -8 -6 -5 -6 6 -1 11 2 17 5 13 3 -3 4 -12 1 -19z m-4647 8 c0 -2 -7
-6 -15 -10 -8 -3 -15 -1 -15 4 0 6 7 10 15 10 8 0 15 -2 15 -4z m87 -32 c16 2
22 1 15 -1 -7 -3 -9 -9 -6 -15 5 -8 -3 -9 -27 -3 -19 5 -52 8 -73 7 -24 -1
-36 2 -30 7 14 14 47 18 71 9 13 -4 35 -6 50 -4z m4792 -8 c9 -11 9 -16 0 -22
-8 -4 -9 -3 -5 4 4 7 2 12 -3 12 -6 0 -11 5 -11 10 0 14 5 13 19 -4z m-4929
-6 c0 -5 -4 -10 -9 -10 -6 0 -13 5 -16 10 -3 6 1 10 9 10 9 0 16 -4 16 -10z
m190 -10 c0 -5 -4 -10 -9 -10 -6 0 -13 5 -16 10 -3 6 1 10 9 10 9 0 16 -4 16
-10z m4370 -74 c0 -39 -5 -68 -12 -74 -10 -8 -12 6 -10 69 4 94 22 97 22 5z
m460 68 c0 -8 -19 -13 -24 -6 -3 5 1 9 9 9 8 0 15 -2 15 -3z m-5073 -10 c-3
-3 -12 -4 -19 -1 -8 3 -5 6 6 6 11 1 17 -2 13 -5z m181 -34 c15 -8 15 -9 -3
-10 -11 0 -40 7 -65 15 l-45 15 48 -5 c27 -3 56 -9 65 -15z m137 2 c-3 -3 -11
0 -18 7 -9 10 -8 11 6 5 10 -3 15 -9 12 -12z m60 -2 c3 -5 1 -10 -4 -10 -6 0
-11 5 -11 10 0 6 2 10 4 10 3 0 8 -4 11 -10z m4295 -12 c0 -7 -5 -20 -10 -28
-8 -12 -10 -9 -10 13 0 15 5 27 10 27 6 0 10 -6 10 -12z m-4420 -8 c0 -5 -2
-10 -4 -10 -3 0 -8 5 -11 10 -3 6 -1 10 4 10 6 0 11 -4 11 -10z m200 0 c0 -5
-5 -10 -11 -10 -5 0 -7 5 -4 10 3 6 8 10 11 10 2 0 4 -4 4 -10z m-147 -7 c-7
-2 -21 -2 -30 0 -10 3 -4 5 12 5 17 0 24 -2 18 -5z m52 -13 c-3 -5 -12 -7 -20
-3 -21 7 -19 13 6 13 11 0 18 -4 14 -10z m45 0 c0 -5 -7 -10 -15 -10 -8 0 -15
5 -15 10 0 6 7 10 15 10 8 0 15 -4 15 -10z m30 -10 c0 -5 -5 -10 -11 -10 -5 0
-7 5 -4 10 3 6 8 10 11 10 2 0 4 -4 4 -10z m96 -28 c-4 -3 -11 -1 -17 5 -6 6
-19 9 -28 6 -13 -4 -14 -3 -2 5 16 11 59 -4 47 -16z m3140 -8 c22 -9 49 -29
62 -45 24 -30 51 -39 53 -16 0 9 2 9 6 -1 2 -6 9 -10 14 -7 12 8 71 -24 64
-35 -3 -6 0 -8 7 -5 8 3 14 -4 14 -20 2 -32 -50 -80 -105 -96 -34 -10 -44 -9
-72 7 -44 26 -79 97 -86 173 -3 34 -3 61 -1 61 3 0 23 -7 44 -16z m-3189 -10
c-3 -3 -12 -4 -19 -1 -8 3 -5 6 6 6 11 1 17 -2 13 -5z m98 -24 c4 -7 -3 -8
-22 -4 -38 9 -42 14 -10 14 14 0 29 -5 32 -10z m60 -11 c11 -17 0 -20 -21 -4
-17 13 -17 14 -2 15 9 0 20 -5 23 -11z m-1078 -15 c-3 -3 -12 -4 -19 -1 -8 3
-5 6 6 6 11 1 17 -2 13 -5z m1323 -40 c0 -2 -11 -4 -25 -4 -14 0 -25 4 -25 9
0 4 11 6 25 3 14 -2 25 -6 25 -8z m3137 -71 c45 -26 83 -52 83 -58 0 -28 -131
-235 -149 -235 -12 0 -29 104 -37 217 -7 87 -3 123 12 123 4 0 45 -21 91 -47z
m-2912 -3 c3 -5 1 -10 -4 -10 -6 0 -11 5 -11 10 0 6 2 10 4 10 3 0 8 -4 11
-10z m220 -30 c3 -5 1 -10 -4 -10 -6 0 -11 5 -11 10 0 6 2 10 4 10 3 0 8 -4
11 -10z m-1735 -10 c8 -5 11 -10 5 -10 -5 0 -17 5 -25 10 -8 5 -10 10 -5 10 6
0 17 -5 25 -10z m1675 0 c8 -13 -5 -13 -25 0 -13 8 -13 10 2 10 9 0 20 -4 23
-10z m-80 -20 c3 -5 1 -10 -4 -10 -6 0 -11 5 -11 10 0 6 2 10 4 10 3 0 8 -4
11 -10z m60 -60 c3 -5 -1 -10 -9 -10 -9 0 -16 5 -16 10 0 6 4 10 9 10 6 0 13
-4 16 -10z m-505 -10 c8 -5 11 -10 5 -10 -5 0 -17 5 -25 10 -8 5 -10 10 -5 10
6 0 17 -5 25 -10z m608 -16 c4 -4 -4 -4 -18 -1 -14 4 -33 7 -42 7 -10 0 -18 4
-18 9 0 10 67 -3 78 -15z m-546 -6 c-9 -9 -15 -9 -24 0 -9 9 -7 12 12 12 19 0
21 -3 12 -12z m4075 -32 c-18 -26 -23 -29 -25 -15 -5 26 16 59 32 53 11 -4 10
-12 -7 -38z m-4027 24 c8 -5 11 -10 5 -10 -5 0 -17 5 -25 10 -8 5 -10 10 -5
10 6 0 17 -5 25 -10z m259 -16 c2 -2 -12 -4 -32 -4 -20 0 -39 5 -42 11 -5 7 5
8 32 3 21 -4 40 -8 42 -10z m3796 -30 l-15 -39 6 35 c7 38 14 54 20 47 2 -2
-3 -21 -11 -43z m-3925 6 c0 -5 -2 -10 -4 -10 -3 0 -8 5 -11 10 -3 6 -1 10 4
10 6 0 11 -4 11 -10z m-67 -7 c-7 -2 -21 -2 -30 0 -10 3 -4 5 12 5 17 0 24 -2
18 -5z m64 -18 c12 -9 26 -14 30 -13 17 5 74 -12 69 -20 -5 -9 -11 -9 -94 3
-39 6 -50 11 -42 20 5 6 7 15 3 18 -13 13 13 7 34 -8z m103 5 c0 -5 -4 -10
-10 -10 -5 0 -10 5 -10 10 0 6 5 10 10 10 6 0 10 -4 10 -10z m3600 -15 c-10
-12 -10 -15 0 -15 8 0 11 -2 9 -5 -3 -2 -15 -2 -27 1 l-21 6 22 18 c25 21 36
18 17 -5z m-3560 5 c0 -5 -4 -10 -9 -10 -6 0 -13 5 -16 10 -3 6 1 10 9 10 9 0
16 -4 16 -10z m3725 0 c3 -5 -1 -10 -9 -10 -9 0 -16 5 -16 10 0 6 4 10 9 10 6
0 13 -4 16 -10z m135 -25 c7 -8 8 -15 2 -15 -5 0 -15 7 -22 15 -7 8 -8 15 -2
15 5 0 15 -7 22 -15z m-1121 -38 c17 10 21 8 31 -18 11 -25 10 -32 -5 -49 -10
-11 -22 -20 -27 -20 -11 0 -43 35 -60 65 -11 20 -11 20 11 0 l22 -19 -6 29
c-5 23 -4 26 4 15 8 -12 14 -13 30 -3z m-2629 -17 c0 -5 -7 -7 -15 -4 -8 4
-15 8 -15 10 0 2 7 4 15 4 8 0 15 -4 15 -10z m75 -10 c27 -7 27 -8 5 -8 -14 0
-36 4 -50 8 -20 6 -21 8 -5 8 11 0 34 -4 50 -8z m115 -30 c0 -12 -8 -12 -35 0
-18 8 -17 9 8 9 15 1 27 -3 27 -9z m60 -20 c12 -8 11 -10 -7 -10 -13 0 -23 5
-23 10 0 13 11 13 30 0z m-323 -6 c-3 -3 -12 -4 -19 -1 -8 3 -5 6 6 6 11 1 17
-2 13 -5z m273 -4 c0 -5 -7 -7 -15 -4 -8 4 -15 8 -15 10 0 2 7 4 15 4 8 0 15
-4 15 -10z m-43 -56 c-3 -3 -12 -4 -19 -1 -8 3 -5 6 6 6 11 1 17 -2 13 -5z
m74 -14 c6 0 7 5 4 10 -8 13 1 13 45 0 19 -6 46 -13 60 -15 14 -2 36 -8 50
-14 42 -17 -7 -14 -69 5 -30 8 -65 12 -82 9 -16 -4 -39 -3 -51 1 l-23 8 25 6
c14 3 27 3 28 -2 2 -4 8 -8 13 -8z m67 -19 c9 -6 34 -13 55 -16 20 -3 37 -11
37 -17 0 -5 -7 -7 -16 -4 -9 4 -36 11 -60 17 -25 6 -47 15 -50 20 -7 12 12 11
34 0z m513 -190 c11 -13 11 -14 -5 -8 -10 4 -26 7 -37 7 -10 0 -19 4 -19 9 0
14 46 8 61 -8z m36 13 c-3 -3 -12 -4 -19 -1 -8 3 -5 6 6 6 11 1 17 -2 13 -5z
m143 -70 c0 -2 -9 -4 -20 -4 -11 0 -20 4 -20 9 0 5 9 7 20 4 11 -3 20 -7 20
-9z m-70 -94 c18 -12 2 -12 -25 0 -13 6 -15 9 -5 9 8 0 22 -4 30 -9z m1045
-160 c-3 -5 -14 -10 -23 -9 -14 0 -13 2 3 9 27 11 27 11 20 0z m-105 -40 c0
-5 -8 -10 -17 -10 -15 0 -16 2 -3 10 19 12 20 12 20 0z m64 -4 c-3 -8 -13 -17
-21 -21 -18 -6 -41 11 -29 22 4 4 11 2 15 -5 6 -10 11 -10 21 3 16 19 21 19
14 1z m1653 -110 c-3 -8 -1 -17 6 -20 9 -3 9 -5 0 -5 -15 -1 -26 16 -18 29 9
15 18 12 12 -4z m-389 -8 c9 -9 12 -9 12 1 0 7 5 9 11 5 6 -3 7 -10 2 -15 -10
-10 -53 0 -53 12 0 13 14 11 28 -3z m432 2 c13 -8 13 -10 -2 -10 -9 0 -20 5
-23 10 -8 13 5 13 25 0z m-492 -16 c23 -4 42 -11 42 -16 0 -5 9 -7 19 -3 11 3
22 2 25 -4 3 -5 24 -7 46 -4 36 5 40 4 40 -16 0 -12 4 -20 9 -17 5 3 22 -1 37
-9 33 -17 68 -20 59 -5 -3 5 -20 14 -38 20 -31 9 -31 10 8 4 22 -3 67 -12 99
-21 45 -13 55 -18 40 -24 -10 -4 -23 -3 -28 2 -6 5 -24 9 -40 8 -30 0 -29 -1
14 -20 35 -15 38 -18 15 -14 -51 9 -68 13 -130 29 -65 18 -142 30 -134 22 6
-6 144 -44 192 -53 15 -3 27 -10 27 -15 0 -11 -74 -1 -78 11 -1 4 -22 6 -45 4
-32 -3 -38 -1 -27 7 11 8 2 9 -35 6 -36 -4 -43 -3 -25 3 25 9 25 9 2 10 -13 1
-33 -4 -45 -11 -19 -10 -20 -9 -10 4 11 13 9 15 -15 17 -48 3 -67 7 -80 15 -7
4 -24 5 -38 2 -15 -4 -24 -2 -24 5 0 6 -7 9 -15 5 -24 -9 -18 5 18 41 22 23
38 31 52 28 11 -3 39 -8 63 -11z m552 6 c8 -5 11 -10 5 -10 -5 0 -17 5 -25 10
-8 5 -10 10 -5 10 6 0 17 -5 25 -10z m-403 -6 c-3 -3 -12 -4 -19 -1 -8 3 -5 6
6 6 11 1 17 -2 13 -5z m210 0 c-3 -3 -12 -4 -19 -1 -8 3 -5 6 6 6 11 1 17 -2
13 -5z m-132 -14 c25 -11 -1 -11 -35 0 -20 6 -21 8 -5 8 11 0 29 -3 40 -8z
m392 4 c-3 -3 -12 -4 -19 -1 -8 3 -5 6 6 6 11 1 17 -2 13 -5z m3108 -43 c3 -5
0 -13 -6 -17 -6 -3 -14 -1 -18 5 -4 6 -16 9 -27 5 -16 -5 -16 -4 -4 5 19 13
47 14 55 2z m143 3 c12 -4 22 -10 22 -14 0 -10 -49 0 -56 11 -6 10 2 11 34 3z
m-644 -19 c3 -8 1 -15 -4 -15 -6 0 -10 7 -10 15 0 8 2 15 4 15 2 0 6 -7 10
-15z m593 9 c-3 -3 -12 -4 -19 -1 -8 3 -5 6 6 6 11 1 17 -2 13 -5z m-732 -14
c17 -8 16 -8 -7 -7 -16 1 -28 5 -28 9 0 10 9 9 35 -2z m895 0 c0 -5 -7 -10
-16 -10 -8 0 -12 5 -9 10 3 6 10 10 16 10 5 0 9 -4 9 -10z m-4052 -9 c11 -7
11 -9 -1 -14 -9 -3 -18 1 -21 9 -6 16 2 18 22 5z m3212 -1 c0 -5 -2 -10 -4
-10 -3 0 -8 5 -11 10 -3 6 -1 10 4 10 6 0 11 -4 11 -10z m65 -10 c13 -5 14 -9
5 -9 -8 0 -24 4 -35 9 -13 5 -14 9 -5 9 8 0 24 -4 35 -9z m662 4 c-3 -3 -12
-4 -19 -1 -8 3 -5 6 6 6 11 1 17 -2 13 -5z m-3372 -24 c63 -18 66 -19 25 -16
-25 2 -61 10 -80 19 -48 21 -28 20 55 -3z m2772 4 c-3 -3 -12 -4 -19 -1 -8 3
-5 6 6 6 11 1 17 -2 13 -5z m368 -4 l20 -9 -20 1 c-11 0 -31 4 -45 8 l-25 8
25 0 c14 0 34 -3 45 -8z m362 4 c-3 -3 -12 -4 -19 -1 -8 3 -5 6 6 6 11 1 17
-2 13 -5z m-3587 -14 c12 -8 11 -10 -7 -10 -13 0 -23 5 -23 10 0 13 11 13 30
0z m3285 0 c3 -5 -1 -10 -10 -10 -9 0 -13 5 -10 10 3 6 8 10 10 10 2 0 7 -4
10 -10z m-3320 -33 c7 -7 4 -8 -8 -3 -10 3 -27 6 -38 6 -10 0 -19 5 -19 10 0
12 50 2 65 -13z m134 7 c10 -9 -35 -3 -49 6 -11 8 -7 9 15 4 17 -4 32 -8 34
-10z m91 6 c0 -5 -7 -7 -15 -4 -8 4 -15 8 -15 10 0 2 7 4 15 4 8 0 15 -4 15
-10z m1967 -6 c-3 -3 -12 -4 -19 -1 -8 3 -5 6 6 6 11 1 17 -2 13 -5z m-1889
-29 c-3 -3 -9 2 -12 12 -6 14 -5 15 5 6 7 -7 10 -15 7 -18z m-255 8 c-7 -2
-19 -2 -25 0 -7 3 -2 5 12 5 14 0 19 -2 13 -5z m1603 -3 c8 0 14 -4 14 -9 0
-6 -18 -9 -39 -8 -32 1 -38 4 -29 15 6 7 18 10 25 7 8 -3 21 -5 29 -5z m199 0
c3 -5 1 -10 -4 -10 -6 0 -11 5 -11 10 0 6 2 10 4 10 3 0 8 -4 11 -10z m-278
-46 c-3 -3 -12 -4 -19 -1 -8 3 -5 6 6 6 11 1 17 -2 13 -5z"/>
<path d="M7730 5866 c0 -2 8 -10 18 -17 15 -13 16 -12 3 4 -13 16 -21 21 -21
13z"/>
<path d="M7976 4993 c9 -35 8 -35 28 -27 25 10 16 48 -12 52 -20 3 -22 1 -16
-25z"/>
<path d="M7840 4992 c0 -5 9 -12 19 -15 20 -5 41 -60 41 -106 0 -20 2 -22 16
-10 19 16 14 93 -7 114 -18 18 -69 30 -69 17z"/>
<path d="M6750 4698 c-12 -22 -12 -22 6 -6 10 10 15 20 12 24 -4 3 -12 -5 -18
-18z"/>
<path d="M3345 3610 c-3 -5 -2 -10 4 -10 5 0 13 5 16 10 3 6 2 10 -4 10 -5 0
-13 -4 -16 -10z"/>
<path d="M4785 3590 c-3 -5 -1 -10 4 -10 6 0 11 5 11 10 0 6 -2 10 -4 10 -3 0
-8 -4 -11 -10z"/>
<path d="M3268 3563 c7 -3 16 -2 19 1 4 3 -2 6 -13 5 -11 0 -14 -3 -6 -6z"/>
<path d="M4425 3460 c3 -5 13 -10 21 -10 8 0 14 5 14 10 0 6 -9 10 -21 10 -11
0 -17 -4 -14 -10z"/>
<path d="M4345 3450 c-3 -5 -1 -10 4 -10 6 0 11 5 11 10 0 6 -2 10 -4 10 -3 0
-8 -4 -11 -10z"/>
<path d="M4470 3456 c0 -2 11 -6 25 -8 14 -3 25 -1 25 3 0 5 -11 9 -25 9 -14
0 -25 -2 -25 -4z"/>
<path d="M4408 3433 c7 -3 16 -2 19 1 4 3 -2 6 -13 5 -11 0 -14 -3 -6 -6z"/>
<path d="M4690 3430 l-35 -7 40 -1 c22 0 51 4 65 8 24 8 24 8 -5 8 -16 0 -46
-4 -65 -8z"/>
<path d="M4508 3413 c7 -3 16 -2 19 1 4 3 -2 6 -13 5 -11 0 -14 -3 -6 -6z"/>
<path d="M1675 3300 c4 -6 11 -8 16 -5 14 9 11 15 -7 15 -8 0 -12 -5 -9 -10z"/>
<path d="M1735 3300 c3 -5 8 -10 11 -10 2 0 4 5 4 10 0 6 -5 10 -11 10 -5 0
-7 -4 -4 -10z"/>
<path d="M1324 3201 c3 -5 15 -7 26 -4 28 7 25 13 -6 13 -14 0 -23 -4 -20 -9z"/>
<path d="M1060 3170 c-40 -5 -14 -6 65 -3 71 2 132 6 134 9 6 6 -121 2 -199
-6z"/>
<path d="M363 3074 c8 -8 252 -41 362 -49 48 -3 53 -2 25 5 -30 7 -106 17
-345 46 -27 4 -46 3 -42 -2z"/>
<path d="M1238 2723 c6 -2 18 -2 25 0 6 3 1 5 -13 5 -14 0 -19 -2 -12 -5z"/>
<path d="M1290 2700 c-9 -6 -10 -10 -3 -10 6 0 15 5 18 10 8 12 4 12 -15 0z"/>
<path d="M1163 2673 c9 -2 25 -2 35 0 9 3 1 5 -18 5 -19 0 -27 -2 -17 -5z"/>
<path d="M1443 2603 c9 -2 23 -2 30 0 6 3 -1 5 -18 5 -16 0 -22 -2 -12 -5z"/>
<path d="M2420 2580 c0 -5 5 -10 10 -10 6 0 10 5 10 10 0 6 -4 10 -10 10 -5 0
-10 -4 -10 -10z"/>
<path d="M2510 2570 c0 -12 27 -12 55 0 16 7 13 9 -17 9 -21 1 -38 -3 -38 -9z"/>
<path d="M2578 2553 c7 -3 16 -2 19 1 4 3 -2 6 -13 5 -11 0 -14 -3 -6 -6z"/>
<path d="M2265 2513 c17 -2 37 -7 45 -10 8 -3 19 -5 24 -4 4 1 14 -3 22 -10 8
-6 20 -9 27 -6 18 7 119 -12 134 -25 8 -6 24 -7 40 -3 27 8 27 8 -16 21 -54
17 -238 45 -277 43 l-29 -2 30 -4z"/>
<path d="M2603 2453 c9 -2 23 -2 30 0 6 3 -1 5 -18 5 -16 0 -22 -2 -12 -5z"/>
<path d="M2458 2443 c7 -3 16 -2 19 1 4 3 -2 6 -13 5 -11 0 -14 -3 -6 -6z"/>
<path d="M2683 2443 c15 -2 25 -8 22 -12 -2 -5 8 -6 23 -3 24 5 24 6 7 13 -11
4 -33 7 -50 7 l-30 -1 28 -4z"/>
<path d="M2688 2373 c7 -3 16 -2 19 1 4 3 -2 6 -13 5 -11 0 -14 -3 -6 -6z"/>
<path d="M2675 2290 c4 -6 11 -8 16 -5 14 9 11 15 -7 15 -8 0 -12 -5 -9 -10z"/>
<path d="M2738 2263 c7 -3 16 -2 19 1 4 3 -2 6 -13 5 -11 0 -14 -3 -6 -6z"/>
<path d="M3490 2056 c0 -2 7 -6 15 -10 8 -3 15 -1 15 4 0 6 -7 10 -15 10 -8 0
-15 -2 -15 -4z"/>
<path d="M3610 2030 c20 -13 33 -13 25 0 -3 6 -14 10 -23 10 -15 0 -15 -2 -2
-10z"/>
<path d="M3518 2023 c7 -3 16 -2 19 1 4 3 -2 6 -13 5 -11 0 -14 -3 -6 -6z"/>
<path d="M3600 1920 c0 -5 13 -10 29 -10 16 0 32 -6 34 -12 4 -10 6 -10 6 -1
1 14 -5 18 -41 27 -17 4 -28 2 -28 -4z"/>
<path d="M3686 1899 c8 -13 40 -16 51 -4 8 8 2 11 -22 11 -18 -1 -31 -4 -29
-7z"/>
<path d="M3379 1819 c14 -5 28 -6 32 -2 4 4 -6 9 -24 10 -30 1 -31 1 -8 -8z"/>
<path d="M3508 1813 c7 -3 16 -2 19 1 4 3 -2 6 -13 5 -11 0 -14 -3 -6 -6z"/>
<path d="M3635 1790 c-3 -5 -1 -10 4 -10 6 0 11 5 11 10 0 6 -2 10 -4 10 -3 0
-8 -4 -11 -10z"/>
<path d="M3522 1779 c3 -9 16 -13 36 -11 18 2 32 -1 32 -6 0 -6 10 -8 23 -5
16 3 18 2 8 -5 -9 -7 -10 -12 -2 -16 6 -4 11 -2 11 3 0 6 10 11 22 11 22 0 20
10 -4 14 -7 2 -31 6 -53 10 -22 4 -48 10 -59 13 -12 3 -17 1 -14 -8z"/>
<path d="M4158 1763 c7 -3 16 -2 19 1 4 3 -2 6 -13 5 -11 0 -14 -3 -6 -6z"/>
<path d="M3695 1740 c11 -5 29 -8 40 -8 16 0 15 2 -5 8 -34 11 -60 11 -35 0z"/>
<path d="M4120 1746 c0 -2 7 -7 16 -10 8 -3 12 -2 9 4 -6 10 -25 14 -25 6z"/>
<path d="M3768 1723 c7 -3 16 -2 19 1 4 3 -2 6 -13 5 -11 0 -14 -3 -6 -6z"/>
<path d="M4188 1723 c7 -3 16 -2 19 1 4 3 -2 6 -13 5 -11 0 -14 -3 -6 -6z"/>
<path d="M3700 1689 c0 -4 15 -9 34 -11 19 -2 33 -1 30 3 -5 9 -64 17 -64 8z"/>
<path d="M4068 1653 c6 -2 9 -10 6 -15 -4 -7 -2 -8 5 -4 13 9 5 26 -12 25 -9
0 -8 -2 1 -6z"/>
<path d="M4658 1653 c7 -3 16 -2 19 1 4 3 -2 6 -13 5 -11 0 -14 -3 -6 -6z"/>
<path d="M4720 1640 c14 -4 34 -8 45 -8 l20 -1 -20 9 c-11 5 -31 8 -45 8 l-25
0 25 -8z"/>
<path d="M4798 1623 c7 -3 16 -2 19 1 4 3 -2 6 -13 5 -11 0 -14 -3 -6 -6z"/>
<path d="M4900 1601 c8 -5 51 -16 95 -25 44 -9 98 -20 120 -26 55 -13 62 -12
40 4 -11 8 -22 13 -26 11 -3 -2 -30 3 -60 11 -30 8 -67 16 -84 18 -16 2 -46 6
-65 10 -24 5 -30 4 -20 -3z"/>
<path d="M4280 1570 c8 -5 22 -9 30 -9 10 0 8 3 -5 9 -27 12 -43 12 -25 0z"/>
<path d="M4168 1553 c7 -3 16 -2 19 1 4 3 -2 6 -13 5 -11 0 -14 -3 -6 -6z"/>
<path d="M4208 1543 c7 -3 16 -2 19 1 4 3 -2 6 -13 5 -11 0 -14 -3 -6 -6z"/>
<path d="M4248 1533 c7 -3 16 -2 19 1 4 3 -2 6 -13 5 -11 0 -14 -3 -6 -6z"/>
<path d="M4155 1520 c3 -5 10 -10 16 -10 5 0 9 5 9 10 0 6 -7 10 -16 10 -8 0
-12 -4 -9 -10z"/>
<path d="M4295 1520 c11 -5 29 -8 40 -8 16 0 15 2 -5 8 -34 11 -60 11 -35 0z"/>
<path d="M4215 1500 c11 -5 31 -9 45 -9 20 -1 22 1 10 9 -8 5 -28 9 -45 9 -26
0 -27 -2 -10 -9z"/>
<path d="M4625 1440 c-3 -5 -1 -10 4 -10 6 0 11 5 11 10 0 6 -2 10 -4 10 -3 0
-8 -4 -11 -10z"/>
<path d="M4698 1433 c7 -3 16 -2 19 1 4 3 -2 6 -13 5 -11 0 -14 -3 -6 -6z"/>
<path d="M4780 1410 c0 -9 39 -25 45 -18 2 2 -7 8 -21 15 -13 6 -24 7 -24 3z"/>
<path d="M4853 1379 c1 -14 4 -16 17 -6 8 6 16 12 18 13 1 1 -6 4 -17 7 -14 3
-19 0 -18 -14z"/>
<path d="M4908 1373 c7 -3 16 -2 19 1 4 3 -2 6 -13 5 -11 0 -14 -3 -6 -6z"/>
<path d="M4925 1360 c-13 -5 -14 -9 -5 -9 8 0 24 4 35 9 13 5 14 9 5 9 -8 0
-24 -4 -35 -9z"/>
<path d="M4450 1350 c0 -5 5 -10 10 -10 6 0 10 5 10 10 0 6 -4 10 -10 10 -5 0
-10 -4 -10 -10z"/>
<path d="M4584 1343 c15 -4 16 -7 5 -15 -11 -8 -11 -9 3 -5 9 3 19 1 22 -6 2
-7 5 -5 5 4 1 17 -20 30 -42 28 -7 -1 -3 -4 7 -6z"/>
<path d="M4985 1340 c3 -5 8 -10 11 -10 2 0 4 5 4 10 0 6 -5 10 -11 10 -5 0
-7 -4 -4 -10z"/>
<path d="M4530 1330 c8 -5 22 -9 30 -9 10 0 8 3 -5 9 -27 12 -43 12 -25 0z"/>
<path d="M4657 1323 c-12 -12 -7 -19 15 -20 13 -1 18 1 13 5 -6 4 -13 11 -16
15 -3 4 -9 4 -12 0z"/>
<path d="M4730 1300 c-9 -6 -10 -10 -3 -10 6 0 15 5 18 10 8 12 4 12 -15 0z"/>
<path d="M5817 2653 c-4 -3 -7 -11 -7 -17 0 -6 5 -5 12 2 6 6 9 14 7 17 -3 3
-9 2 -12 -2z"/>
<path d="M7236 2611 c-4 -7 -5 -15 -2 -18 9 -9 19 4 14 18 -4 11 -6 11 -12 0z"/>
<path d="M5790 2133 c0 -4 5 -15 10 -23 8 -13 10 -13 10 2 0 9 -4 20 -10 23
-5 3 -10 3 -10 -2z"/>
<path d="M5860 2120 c0 -5 4 -10 9 -10 6 0 13 5 16 10 3 6 -1 10 -9 10 -9 0
-16 -4 -16 -10z"/>
<path d="M5760 2105 c0 -8 4 -15 10 -15 5 0 7 7 4 15 -4 8 -8 15 -10 15 -2 0
-4 -7 -4 -15z"/>
<path d="M5890 2090 c-9 -6 -10 -10 -3 -10 6 0 15 5 18 10 8 12 4 12 -15 0z"/>
<path d="M5830 2082 c0 -5 7 -13 16 -16 10 -4 14 -1 12 6 -5 15 -28 23 -28 10z"/>
<path d="M6498 883 c7 -3 16 -2 19 1 4 3 -2 6 -13 5 -11 0 -14 -3 -6 -6z"/>
<path d="M920 6800 c-19 -5 -72 -14 -118 -20 -91 -12 -132 -26 -132 -47 0 -19
63 -17 156 7 44 11 98 20 122 20 40 0 42 -1 32 -20 -6 -12 -23 -26 -38 -31
-37 -14 -183 -40 -193 -34 -4 3 -10 1 -14 -5 -13 -21 47 -21 151 0 147 29 144
28 144 55 0 18 -4 23 -15 19 -11 -5 -13 -2 -9 9 3 9 15 17 27 19 12 2 22 10
22 18 0 18 -80 24 -135 10z"/>
<path d="M2103 6341 c-99 -18 -113 -25 -95 -43 9 -9 37 -7 119 11 60 12 118
25 131 27 38 8 24 24 -20 23 -24 -1 -84 -9 -135 -18z"/>
<path d="M2148 6266 c-37 -6 -71 -16 -75 -20 -13 -14 99 1 137 17 42 18 27 19
-62 3z"/>
<path d="M7191 6154 c-10 -22 -9 -28 6 -40 17 -12 17 -13 -4 -14 -14 0 -23 -6
-23 -15 0 -25 -1 -29 -11 -41 -6 -7 -5 -22 3 -40 6 -16 12 -37 13 -47 3 -26
15 -34 15 -9 0 14 5 20 14 16 13 -5 25 14 26 41 1 6 7 20 15 32 13 19 12 24
-5 46 -11 14 -20 30 -20 36 0 6 -5 11 -10 11 -6 0 -8 11 -4 25 8 33 0 32 -15
-1z"/>
<path d="M7111 6040 c-5 -16 -8 -30 -6 -30 3 0 11 14 20 30 9 17 11 30 6 30
-5 0 -14 -13 -20 -30z"/>
<path d="M7081 5880 c0 -19 4 -42 9 -50 8 -12 10 -10 9 10 -1 14 -5 36 -9 50
-7 23 -8 22 -9 -10z"/>
<path d="M6689 5641 c-13 -10 -33 -21 -45 -25 -12 -3 -29 -24 -39 -46 -15 -34
-16 -44 -6 -63 16 -29 106 -93 126 -89 9 2 19 -8 25 -22 5 -14 28 -37 50 -52
l41 -27 27 20 c23 17 28 29 30 74 4 72 -22 168 -59 213 -27 32 -35 36 -78 36
-32 0 -56 -6 -72 -19z m66 -131 c3 -5 15 -10 26 -10 22 0 45 -41 36 -64 -9
-23 -17 -20 -71 26 -42 37 -46 43 -30 49 27 11 32 10 39 -1z m5 -78 c13 -10
21 -24 19 -31 -3 -7 -15 0 -34 19 -31 33 -21 41 15 12z"/>
<path d="M8416 5503 c11 -45 26 -64 20 -24 -3 18 -6 37 -6 42 0 5 -5 9 -10 9
-6 0 -8 -11 -4 -27z"/>
<path d="M10190 5433 c-42 -43 -71 -123 -76 -213 l-3 -55 -68 -14 c-37 -8 -71
-19 -75 -24 -4 -7 -21 -7 -50 0 -23 6 -55 11 -70 11 l-27 0 19 -39 c26 -51 25
-56 -6 -22 -24 26 -24 24 7 -32 57 -106 123 -215 127 -211 2 3 -14 41 -37 85
-23 44 -41 83 -41 86 0 3 14 5 31 5 25 0 32 6 44 33 13 30 22 36 92 57 66 20
81 21 108 10 120 -49 217 -51 266 -4 30 29 73 108 85 157 5 20 2 27 -9 27 -8
0 -27 16 -42 35 -33 45 -182 145 -214 145 -14 0 -39 -15 -61 -37z"/>
<path d="M8870 5293 c24 -18 90 -44 90 -37 0 5 -97 54 -107 54 -4 0 4 -8 17
-17z"/>
<path d="M6520 5258 c0 -4 4 -8 9 -8 6 0 12 4 15 8 3 5 -1 9 -9 9 -8 0 -15 -4
-15 -9z"/>
<path d="M8880 5245 c0 -7 8 -12 18 -10 9 2 23 4 31 4 21 1 9 9 -22 15 -18 3
-27 0 -27 -9z"/>
<path d="M6453 5235 c-3 -9 -3 -19 1 -22 8 -9 37 18 30 28 -8 14 -24 11 -31
-6z"/>
<path d="M6570 5240 c0 -6 7 -10 15 -10 8 0 15 2 15 4 0 2 -7 6 -15 10 -8 3
-15 1 -15 -4z"/>
<path d="M9560 5231 c0 -7 -15 -11 -37 -11 -21 1 -55 -3 -75 -8 -20 -5 -39 -7
-42 -4 -4 3 -6 0 -6 -6 0 -7 -15 -12 -35 -12 -62 0 -52 -11 127 -150 129 -99
310 -262 402 -360 l59 -63 14 27 c19 37 3 116 -44 204 -19 37 -55 106 -80 155
-24 48 -48 85 -53 82 -4 -3 -7 3 -6 12 1 19 -66 61 -101 62 -12 1 -24 9 -28
20 -3 10 -13 25 -23 34 -23 21 -72 33 -72 18z"/>
<path d="M6395 5186 c-25 -18 -13 -42 31 -61 44 -18 52 -15 24 10 -11 10 -20
26 -20 36 0 25 -14 31 -35 15z"/>
<path d="M8750 5190 c0 -5 4 -10 10 -10 5 0 7 -7 4 -15 -9 -23 10 -18 36 10
l23 25 -36 0 c-20 0 -37 -4 -37 -10z"/>
<path d="M6462 5183 c-10 -4 -10 -8 -1 -19 15 -18 29 -18 29 0 0 18 -11 25
-28 19z"/>
<path d="M6580 5170 c0 -12 28 -21 35 -11 2 5 -4 11 -15 14 -11 3 -20 2 -20
-3z"/>
<path d="M6530 5151 c0 -5 7 -11 15 -15 8 -3 15 -1 15 3 0 5 -7 11 -15 15 -8
3 -15 1 -15 -3z"/>
<path d="M8903 5063 c4 -3 2 -12 -5 -20 -19 -23 -4 -20 21 4 l24 23 -23 0
c-13 0 -20 -3 -17 -7z"/>
<path d="M9000 5016 c0 -24 -38 -53 -64 -51 l-24 3 24 -54 c81 -183 94 -200
249 -323 l90 -72 17 38 c9 21 17 31 18 23 1 -10 4 -9 9 5 5 11 4 25 -1 32 -16
20 1 33 41 33 30 0 47 8 80 38 25 23 42 47 43 64 2 18 7 24 18 21 8 -3 4 5
-10 16 -25 22 -426 223 -467 236 -17 5 -23 2 -23 -9z"/>
<path d="M10758 4943 c7 -3 16 -2 19 1 4 3 -2 6 -13 5 -11 0 -14 -3 -6 -6z"/>
<path d="M9995 4846 c9 -53 21 -65 39 -41 13 18 16 18 87 1 41 -9 84 -18 96
-18 13 0 20 -5 16 -11 -3 -6 -1 -7 5 -3 7 4 12 11 12 15 0 14 -152 79 -208 89
l-53 10 6 -42z"/>
<path d="M10308 4833 c6 -2 18 -2 25 0 6 3 1 5 -13 5 -14 0 -19 -2 -12 -5z"/>
<path d="M6610 4741 c-6 -12 -7 -21 -1 -21 10 0 24 30 17 37 -2 3 -9 -5 -16
-16z"/>
<path d="M10779 4706 c-2 -2 -38 -6 -79 -9 -41 -3 -95 -14 -120 -25 l-45 -19
40 -12 c28 -8 74 -9 150 -4 l110 8 3 33 c3 29 1 32 -26 32 -16 0 -31 -2 -33
-4z"/>
<path d="M10746 4599 c-135 -14 -119 -44 20 -37 63 3 69 5 72 26 2 12 0 21 -5
21 -4 -1 -44 -5 -87 -10z"/>
<path d="M10286 4574 c-61 -17 -89 -30 -108 -51 -16 -18 -16 -19 2 -20 11 -1
20 3 20 9 0 14 53 0 62 -16 4 -8 18 -11 32 -9 22 5 26 0 36 -38 14 -53 22 -59
77 -59 36 0 45 4 60 28 9 15 26 37 37 50 17 19 18 22 3 16 -10 -3 -17 -1 -17
5 0 6 -6 11 -13 11 -24 0 -48 25 -42 42 10 25 64 41 83 25 12 -10 14 -9 11 2
-6 18 -183 21 -243 5z"/>
<path d="M6278 4545 l-16 -36 36 -23 c21 -13 38 -23 39 -22 4 3 -31 116 -37
116 -3 0 -13 -16 -22 -35z"/>
<path d="M10769 4546 c-2 -2 -37 -7 -77 -10 -82 -8 -122 -20 -122 -37 0 -8 16
-9 53 -5 28 3 89 8 135 12 71 6 82 9 82 25 0 15 -7 19 -33 19 -19 0 -36 -2
-38 -4z"/>
<path d="M5811 4499 c-15 -42 -14 -72 1 -67 17 6 33 77 20 90 -6 6 -13 -1 -21
-23z"/>
<path d="M5850 4519 c0 -5 5 -7 10 -4 6 3 10 8 10 11 0 2 -4 4 -10 4 -5 0 -10
-5 -10 -11z"/>
<path d="M10719 4465 c-3 -2 -37 -5 -78 -7 -40 -1 -75 -6 -78 -11 -8 -13 259
1 272 14 5 5 -15 9 -51 9 -34 0 -63 -2 -65 -5z"/>
<path d="M8137 4433 c-13 -13 -7 -21 13 -16 11 3 20 9 20 14 0 10 -24 12 -33
2z"/>
<path d="M10775 4433 c-70 -6 -219 -25 -231 -30 -7 -2 -10 -11 -7 -19 4 -12
27 -15 117 -13 171 3 186 6 186 38 0 28 -2 29 -65 24z"/>
<path d="M10829 4346 c-2 -2 -49 -7 -104 -10 -100 -7 -205 -29 -205 -45 0 -8
55 -7 228 5 89 6 92 7 92 30 0 23 -2 28 -11 20z"/>
<path d="M9721 4321 c-17 -8 -30 -19 -28 -25 5 -14 67 -34 110 -35 34 -1 37 1
37 27 0 24 -5 29 -44 38 -34 8 -51 7 -75 -5z"/>
<path d="M5120 4280 c-9 -6 -10 -10 -3 -10 6 0 15 5 18 10 8 12 4 12 -15 0z"/>
<path d="M10589 4264 c-64 -7 -127 -16 -140 -20 -13 -4 -27 -7 -31 -6 -5 1 -8
-2 -8 -8 0 -5 22 -10 49 -10 34 0 51 -5 54 -15 5 -10 -4 -16 -31 -20 -20 -4
-41 -8 -47 -11 -10 -4 230 6 275 11 14 2 49 4 78 4 28 1 52 6 52 11 0 7 -47 8
-132 5 -119 -5 -130 -4 -103 9 17 7 76 19 133 26 74 10 102 17 102 27 0 16
-62 16 -251 -3z"/>
<path d="M10034 4225 c-8 -32 14 -55 53 -55 31 0 29 10 -11 49 l-35 34 -7 -28z"/>
<path d="M5010 4200 c-18 -12 -2 -12 25 0 13 6 15 9 5 9 -8 0 -22 -4 -30 -9z"/>
<path d="M5385 4202 c-12 -12 -3 -33 20 -48 21 -14 29 -14 64 -2 31 10 38 16
32 27 -9 14 -106 33 -116 23z"/>
<path d="M9143 4155 c-99 -27 -182 -82 -360 -238 -55 -49 -105 -89 -110 -89
-15 0 -33 -20 -26 -31 3 -5 1 -7 -4 -4 -21 13 -301 -316 -398 -468 -51 -80
-160 -290 -193 -370 -34 -85 -37 -97 -40 -224 -3 -94 -1 -131 7 -127 7 5 9 1
5 -9 -4 -8 -2 -21 4 -28 5 -6 12 -39 15 -72 11 -101 82 -326 140 -440 11 -22
22 -35 24 -28 2 7 -1 22 -7 35 -11 22 -10 22 4 4 9 -11 16 -24 16 -29 0 -5 12
-36 26 -68 24 -53 28 -57 40 -42 12 16 15 16 24 3 13 -19 13 -47 0 -55 -21
-13 -8 -60 40 -153 28 -53 50 -101 50 -107 0 -16 44 -35 80 -35 21 0 35 9 51
32 26 36 18 47 74 -103 96 -263 257 -438 463 -507 64 -21 96 -26 187 -26 97 0
120 4 197 31 241 84 440 286 589 598 76 158 119 290 158 484 73 357 65 648
-24 957 -45 152 -140 317 -239 413 -43 43 -45 46 -31 68 23 34 19 77 -7 91
-64 34 -308 43 -452 17 -68 -12 -84 -19 -117 -51 -44 -43 -100 -144 -122 -221
-30 -100 -40 -283 -34 -591 l6 -293 -22 7 c-41 12 -192 75 -213 89 -23 15 -62
159 -109 407 -29 151 -31 127 -5 -47 l19 -130 -22 -17 c-12 -9 -25 -14 -29
-10 -4 4 -10 40 -14 80 -4 43 -10 68 -15 60 -4 -7 -11 -9 -15 -5 -4 3 -2 13 5
21 13 16 5 143 -11 163 -6 7 -4 14 3 19 7 4 14 3 16 -3 2 -6 13 -9 23 -6 24 6
24 18 5 143 -11 74 -12 98 -2 107 7 6 68 36 137 67 120 54 224 125 208 142 -5
4 -36 0 -69 -10 -34 -9 -63 -15 -66 -13 -10 11 71 73 142 108 121 60 233 80
393 69 70 -4 141 -13 157 -20 17 -8 32 -14 35 -15 3 -1 19 -8 35 -15 28 -12
147 -15 270 -5 22 2 175 6 340 10 165 4 304 10 309 13 5 2 42 4 82 3 l74 -2 0
81 0 82 -32 -3 c-70 -4 -129 1 -123 12 5 6 26 8 60 4 72 -9 97 -1 93 33 -2 22
-8 27 -30 27 -15 1 -30 4 -34 8 -4 4 2 7 14 7 28 0 52 10 52 22 0 5 -17 6 -37
3 l-38 -6 38 17 c41 18 50 44 15 44 -13 0 -81 -4 -153 -10 -127 -9 -269 -18
-410 -25 -38 -2 -73 -4 -77 -5 -5 0 -8 -7 -8 -15 0 -10 -10 -4 -29 16 -16 17
-35 29 -43 28 -22 -4 -92 13 -105 26 -13 13 1 35 22 35 12 0 45 32 45 43 0 9
-81 30 -88 23 -3 -4 3 -13 14 -21 10 -8 14 -15 7 -15 -6 0 -15 5 -18 10 -4 7
-38 8 -97 4 -68 -5 -92 -4 -98 6 -5 8 -33 12 -86 12 -72 0 -97 5 -144 28 -29
14 -351 10 -407 -5z m1597 -193 c0 -3 -8 -14 -17 -25 -13 -15 -14 -18 -3 -12
9 5 12 5 7 -1 -5 -5 -26 -9 -47 -9 -32 0 -39 4 -43 22 -2 13 -2 25 1 28 7 7
102 4 102 -3z m-440 -22 c0 -5 -7 -7 -15 -4 -8 4 -15 8 -15 10 0 2 7 4 15 4 8
0 15 -4 15 -10z m100 -16 c0 -14 -4 -23 -10 -19 -6 4 -8 10 -5 15 6 10 -23 22
-36 14 -5 -3 -9 0 -9 5 0 6 14 11 30 11 26 0 30 -4 30 -26z m58 -11 c16 -51 7
-53 -18 -4 -15 31 -17 41 -7 41 8 0 19 -17 25 -37z m-208 17 c0 -5 15 -10 33
-10 45 0 59 -11 43 -32 -13 -18 -31 -19 -56 -3 -20 13 -43 55 -30 55 5 0 10
-4 10 -10z m122 -25 c6 -28 -6 -34 -16 -9 -5 14 0 34 8 34 2 0 6 -11 8 -25z
m-202 -20 c0 -8 -4 -15 -10 -15 -5 0 -10 7 -10 15 0 8 5 15 10 15 6 0 10 -7
10 -15z m-325 -205 c-3 -5 -13 -10 -21 -10 -8 0 -12 5 -9 10 3 6 13 10 21 10
8 0 12 -4 9 -10z m-440 -212 c36 -16 31 -33 -13 -34 -20 0 -32 1 -26 3 7 2 10
13 7 23 -6 23 -3 24 32 8z m67 -98 c10 0 90 -87 101 -109 5 -9 -2 -3 -14 13
-29 37 -138 116 -160 116 -23 0 -35 20 -18 30 8 6 25 -2 48 -21 20 -16 39 -29
43 -29z m-743 -218 c1 -13 -3 -20 -9 -17 -5 3 -10 25 -9 48 1 36 2 38 9 17 4
-14 8 -35 9 -48z m-9 -96 c0 -8 -4 -17 -8 -20 -4 -2 -8 4 -8 15 0 10 4 19 8
19 4 0 8 -6 8 -14z m616 -74 c193 -198 187 -730 -13 -1071 -48 -83 -134 -171
-198 -204 -28 -14 -44 -26 -37 -27 21 0 74 30 123 71 l46 38 11 -24 c14 -29
79 -103 103 -116 17 -9 17 -7 4 38 -8 27 -15 57 -15 68 0 12 -9 38 -20 60 -25
48 -25 54 1 85 l21 25 -6 -27 c-4 -16 -2 -28 2 -28 5 0 14 -10 21 -22 11 -23
11 -23 6 2 -4 23 -4 22 9 -4 13 -28 67 -55 109 -56 9 0 17 -2 17 -4 0 -18 -74
-145 -83 -143 -7 1 -12 -5 -12 -13 -1 -26 -25 -61 -38 -54 -7 4 -9 4 -5 0 5
-6 -36 -44 -119 -108 -18 -14 -82 2 -105 26 -24 25 -88 149 -88 171 0 11 -12
15 -52 15 -129 0 -228 107 -277 300 l-19 75 27 3 c14 2 32 9 40 15 10 9 17 7
28 -8 7 -11 17 -20 21 -20 12 1 42 -29 42 -41 0 -21 71 -83 106 -93 43 -12 97
2 146 39 113 82 207 300 208 477 0 34 5 65 10 68 23 14 -17 -262 -46 -316 -8
-16 -13 -32 -12 -36 1 -4 -14 -34 -35 -66 -40 -62 -46 -77 -22 -57 8 7 15 9
15 4 1 -16 52 89 70 145 26 79 50 213 51 285 1 45 3 55 9 36 7 -22 8 -20 9 15
1 63 -16 154 -34 171 -8 8 -15 21 -15 27 0 6 -17 38 -37 71 -35 57 -37 65 -41
164 -5 103 -5 104 16 93 12 -6 38 -28 58 -49z m164 -11 c-5 -9 -16 -25 -25
-36 -16 -20 -16 -19 -9 5 4 14 11 27 15 28 5 2 7 7 5 11 -3 4 1 8 9 8 10 0 11
-5 5 -16z m-770 -117 c0 -21 -17 -25 -22 -6 -3 11 0 19 8 19 8 0 14 -6 14 -13z
m40 -24 c0 -16 -4 -30 -10 -30 -11 0 -14 43 -3 53 11 12 13 8 13 -23z m775
-70 c-3 -5 -16 -10 -28 -10 -18 0 -19 2 -7 10 20 13 43 13 35 0z m-736 -67
c17 -100 18 -163 2 -163 -4 0 -11 26 -15 57 -5 40 -12 61 -26 70 -24 17 -26
43 -5 43 10 0 15 10 15 30 0 54 18 31 29 -37z m530 -23 c0 -8 -6 0 -14 19 -8
18 -15 36 -15 40 1 13 29 -45 29 -59z m-602 8 c-3 -7 -5 -2 -5 12 0 14 2 19 5
13 2 -7 2 -19 0 -25z m610 -60 c-3 -7 -5 -2 -5 12 0 14 2 19 5 13 2 -7 2 -19
0 -25z m-688 9 c-2 -1 -12 -9 -22 -16 -15 -12 -17 -12 -11 3 3 9 13 16 22 16
8 0 13 -1 11 -3z m4 -37 c5 -19 -18 -48 -29 -37 -9 8 4 57 15 57 5 0 11 -9 14
-20z m-11 -81 c-10 -19 -25 -35 -34 -35 -13 -1 -14 4 -5 33 6 18 13 29 17 23
5 -7 11 -6 20 5 20 25 21 12 2 -26z m243 -9 c3 -6 -1 -7 -9 -4 -18 7 -21 14
-7 14 6 0 13 -4 16 -10z m-52 -27 c-10 -17 -11 -23 -3 -15 39 35 72 -14 50
-74 -14 -35 -30 -46 -47 -32 -24 20 -13 -3 13 -27 22 -21 25 -27 14 -40 -19
-23 -30 -18 -30 13 0 15 -7 36 -16 47 -13 17 -16 18 -24 5 -8 -12 -10 -12 -10
-1 0 28 32 136 43 143 23 15 27 7 10 -19z m-211 -31 c4 -16 -12 -42 -27 -42
-7 0 -6 45 2 53 11 12 20 8 25 -11z m-2 -61 c-5 -11 -10 -28 -10 -39 0 -10 -7
-19 -15 -19 -10 0 -15 11 -15 33 0 25 4 32 14 28 8 -3 17 -1 21 5 11 19 16 12
5 -8z m288 -35 c2 -24 -22 -43 -33 -26 -6 9 15 50 25 50 3 0 7 -11 8 -24z
m-133 -56 c-9 -41 -17 -33 -9 9 4 17 9 30 11 27 3 -2 2 -19 -2 -36z m-164 -10
c6 0 3 -7 -6 -16 -21 -21 -29 -12 -20 23 6 21 9 23 12 11 3 -10 9 -18 14 -18z
m409 -30 c0 -5 -4 -10 -10 -10 -5 0 -10 5 -10 10 0 6 5 10 10 10 6 0 10 -4 10
-10z m-270 -50 c-8 -28 -15 -39 -21 -33 -7 7 -4 23 7 46 22 47 28 41 14 -13z
m-153 32 c11 8 12 7 7 -6 -8 -21 -18 -20 -35 2 -11 14 -11 15 1 5 10 -9 17
-10 27 -1z m-423 -122 c3 -14 -5 -1 -19 29 -14 29 -25 56 -25 60 1 11 37 -63
44 -89z m458 48 c-15 -15 -16 -32 -2 -23 6 3 10 -1 10 -11 0 -13 -3 -14 -15
-4 -8 7 -15 9 -15 5 0 -5 -3 -6 -6 -2 -3 3 2 17 13 30 10 14 20 23 22 21 3 -2
-1 -10 -7 -16z m-52 -18 c0 -5 -5 -10 -11 -10 -5 0 -7 5 -4 10 3 6 8 10 11 10
2 0 4 -4 4 -10z m150 -19 c-13 -25 -70 -30 -70 -6 0 10 11 15 35 15 20 0 35 5
35 12 0 6 3 9 6 6 3 -4 1 -16 -6 -27z m895 9 c9 -14 -4 -50 -17 -47 -6 1 -13
-4 -16 -12 -3 -9 0 -11 8 -6 9 6 11 4 5 -4 -5 -9 -10 -10 -18 -2 -8 8 -18 4
-36 -12 l-24 -22 23 40 c41 70 61 87 75 65z m-432 -14 c-14 -23 -57 -71 -73
-81 -8 -5 5 14 30 43 46 52 57 62 43 38z m-153 -16 c0 -5 -7 -10 -15 -10 -8 0
-15 5 -15 10 0 6 7 10 15 10 8 0 15 -4 15 -10z m-334 -28 c-10 -2 -22 0 -28 6
-6 6 0 7 19 4 21 -5 23 -7 9 -10z m309 -62 c3 -5 -1 -10 -9 -10 -9 0 -16 5
-16 10 0 6 4 10 9 10 6 0 13 -4 16 -10z m426 -66 c13 -12 34 -25 46 -28 30 -9
19 -34 -14 -30 -28 3 -70 37 -79 66 -3 10 -10 16 -15 12 -29 -17 25 -83 94
-114 32 -15 37 -20 19 -20 -41 0 -122 57 -122 87 0 7 -4 13 -10 13 -5 0 0 20
12 45 l22 45 12 -28 c6 -15 22 -37 35 -48z m123 -39 c-4 -8 -8 -15 -10 -15 -2
0 -4 7 -4 15 0 8 4 15 10 15 5 0 7 -7 4 -15z m-30 -10 c-4 -8 -11 -15 -16 -15
-6 0 -5 6 2 15 7 8 14 15 16 15 2 0 1 -7 -2 -15z m-1174 -72 c6 -27 13 -57 16
-68 3 -20 3 -20 -12 0 -8 11 -20 37 -26 57 -6 21 -15 38 -20 38 -5 0 -6 5 -3
10 14 23 33 7 45 -37z m1267 -34 c-104 -275 -252 -463 -424 -539 -64 -28 -76
-25 -23 7 80 47 160 113 212 176 75 90 160 225 209 332 24 52 45 93 47 91 1
-2 -8 -32 -21 -67z m-1187 -69 c0 -5 -4 -10 -10 -10 -5 0 -10 5 -10 10 0 6 5
10 10 10 6 0 10 -4 10 -10z m1033 -121 c-10 -17 -38 -52 -63 -78 -25 -27 -31
-31 -13 -10 18 21 44 56 59 79 31 47 43 54 17 9z m-53 -22 c0 -2 -10 -12 -22
-23 l-23 -19 19 23 c18 21 26 27 26 19z m-40 -50 c0 -2 -17 -19 -37 -38 l-38
-34 34 38 c33 34 41 42 41 34z m-197 -94 c-7 -2 -19 -2 -25 0 -7 3 -2 5 12 5
14 0 19 -2 13 -5z"/>
<path d="M9336 2185 c-3 -9 -6 -22 -5 -28 0 -7 5 -1 10 12 5 13 8 26 5 28 -2
2 -6 -3 -10 -12z"/>
<path d="M9236 2013 c-4 -5 -11 -8 -14 -8 -11 0 -97 -89 -95 -97 2 -4 -5 -4
-14 -1 -12 5 -14 3 -8 -7 5 -9 4 -11 -3 -6 -6 4 -30 2 -53 -4 -47 -13 -88 -3
-129 33 l-25 22 25 -29 c67 -77 167 -74 259 9 40 36 59 71 24 44 -16 -13 -17
-12 -4 3 7 10 17 16 21 13 9 -5 35 23 28 30 -3 3 -8 2 -12 -2z m-46 -56 c0 -2
-10 -12 -22 -23 l-23 -19 19 23 c18 21 26 27 26 19z"/>
<path d="M8846 2434 c-11 -30 -7 -64 9 -64 18 0 37 43 29 65 -8 20 -30 19 -38
-1z"/>
<path d="M10140 4160 c20 -13 60 -13 60 0 0 6 -17 10 -37 10 -28 0 -34 -3 -23
-10z"/>
<path d="M10729 4166 c-2 -2 -40 -6 -84 -10 -291 -23 -345 -31 -353 -56 -4
-10 16 -12 107 -8 100 5 113 4 121 -12 11 -20 -4 -23 -165 -35 -44 -4 -85 -11
-92 -17 -7 -6 -30 -8 -51 -5 -44 8 -65 -2 -52 -23 6 -8 10 -10 10 -5 0 6 19
10 43 10 82 1 582 26 605 31 14 3 22 12 22 25 0 21 -3 21 -107 15 -60 -4 -127
-9 -150 -12 -39 -6 -41 -5 -36 15 5 19 13 21 82 23 42 1 85 2 96 3 11 1 41 3
68 4 45 1 47 2 47 31 0 30 -1 30 -53 30 -30 0 -56 -2 -58 -4z"/>
<path d="M320 4148 c-19 -6 -29 -13 -22 -15 20 -8 83 7 77 18 -7 11 -9 10 -55
-3z"/>
<path d="M7333 4119 c-13 -13 -6 -39 9 -39 6 0 8 7 4 15 -3 8 -1 15 4 15 6 0
10 5 10 10 0 13 -13 13 -27 -1z"/>
<path d="M10115 4097 c-15 -8 -15 -11 4 -28 20 -19 20 -19 46 5 l25 24 -29 4
c-17 2 -37 0 -46 -5z"/>
<path d="M3855 4088 c-42 -12 -58 -25 -50 -45 2 -7 -3 -13 -11 -13 -10 0 -14
-8 -12 -22 2 -19 8 -22 31 -20 16 2 45 10 65 17 l37 14 -32 0 c-46 1 -49 18
-5 26 20 3 54 11 75 16 33 9 36 12 23 24 -17 17 -62 18 -121 3z"/>
<path d="M8050 4089 l-65 -6 88 -1 c85 -2 110 2 65 9 -13 2 -52 1 -88 -2z"/>
<path d="M3515 4080 c3 -5 8 -10 11 -10 2 0 4 5 4 10 0 6 -5 10 -11 10 -5 0
-7 -4 -4 -10z"/>
<path d="M8178 4083 c7 -3 16 -2 19 1 4 3 -2 6 -13 5 -11 0 -14 -3 -6 -6z"/>
<path d="M7800 4060 c41 -5 120 -14 175 -20 200 -22 456 -69 533 -97 7 -3 10
0 7 10 -6 14 -2 16 60 36 12 4 -33 16 -115 29 -198 32 -291 40 -525 46 -148 3
-188 2 -135 -4z"/>
<path d="M8074 3982 c3 -5 -14 -19 -37 -32 l-41 -24 29 -8 c23 -6 39 -2 73 18
35 21 48 24 70 15 26 -9 26 -9 -10 -10 -53 -1 -57 -19 -9 -39 22 -9 41 -20 41
-23 0 -4 -21 -12 -47 -19 -52 -15 -43 -23 38 -35 36 -5 60 0 127 25 45 18 80
36 77 41 -4 5 0 7 7 4 7 -3 27 -1 43 3 28 8 25 10 -37 21 -63 12 -70 12 -113
-9 -25 -12 -42 -26 -39 -32 3 -5 -8 -3 -24 6 -43 22 -48 36 -15 37 15 0 37 4
47 8 17 6 16 9 -10 19 -25 10 -155 42 -170 42 -3 0 -3 -4 0 -8z"/>
<path d="M8723 3964 c10 -10 -44 -44 -57 -37 -6 3 -8 3 -4 -2 4 -4 -10 -17
-32 -27 -28 -14 -48 -35 -71 -76 -17 -31 -43 -77 -57 -102 l-25 -45 48 55 c26
30 88 94 137 141 75 72 87 87 72 93 -10 4 -15 4 -11 0z"/>
<path d="M190 3930 c0 -6 7 -10 15 -10 8 0 15 2 15 4 0 2 -7 6 -15 10 -8 3
-15 1 -15 -4z"/>
<path d="M2020 3900 c-18 -12 -2 -12 25 0 13 6 15 9 5 9 -8 0 -22 -4 -30 -9z"/>
<path d="M6390 3844 c-8 -13 -17 -24 -22 -24 -4 0 -8 -5 -8 -11 0 -5 4 -8 9
-4 5 3 12 1 16 -5 3 -5 15 -15 26 -20 16 -9 19 -8 16 12 -2 12 -9 24 -15 26
-7 2 -12 8 -12 14 0 6 6 5 15 -2 23 -19 26 -8 6 17 l-18 22 -13 -25z"/>
<path d="M6420 3855 c0 -2 10 -10 23 -16 20 -11 21 -11 8 4 -13 16 -31 23 -31
12z"/>
<path d="M8679 3843 c-13 -16 -12 -17 4 -4 9 7 17 15 17 17 0 8 -8 3 -21 -13z"/>
<path d="M7985 3738 c-29 -17 -40 -30 -40 -47 0 -36 60 -79 135 -96 36 -8 84
-20 108 -27 48 -14 70 -6 86 29 6 12 25 28 43 37 21 10 33 23 33 36 0 25 -27
16 -36 -12 -6 -19 -6 -19 -19 -1 -7 10 -18 35 -25 55 -13 36 -28 43 -57 25 -6
-4 -13 -2 -15 4 -2 6 -39 13 -88 16 -76 4 -89 2 -125 -19z m49 -33 c3 3 2 0
-3 -6 -10 -12 -31 -4 -31 13 0 7 4 7 13 -1 8 -6 17 -9 21 -6z m210 -16 c-3 -5
0 -9 5 -9 6 0 11 -4 11 -9 0 -5 -13 -3 -30 5 -36 18 -39 24 -7 16 20 -5 21 -4
7 14 -14 18 -14 18 2 5 10 -7 15 -17 12 -22z m-44 -21 c0 -9 -13 -10 -34 -2
-8 3 -12 12 -9 19 4 11 9 12 24 2 10 -6 19 -15 19 -19z"/>
<path d="M8989 3073 c-13 -17 -13 -17 6 -3 11 8 22 16 24 17 2 2 0 3 -6 3 -6
0 -17 -8 -24 -17z"/>
<path d="M8977 2874 c7 -3 10 -11 7 -18 -3 -8 2 -16 11 -20 9 -3 13 -2 10 3
-3 5 -1 12 5 16 19 12 10 25 -17 24 -16 0 -23 -3 -16 -5z"/>
<path d="M8983 2814 c0 -16 13 -19 21 -5 3 5 0 11 -7 14 -8 3 -14 -1 -14 -9z"/>
<path d="M7743 2454 c-8 -22 13 -42 29 -26 9 9 9 12 0 12 -6 0 -9 7 -6 15 4 8
1 15 -5 15 -7 0 -14 -7 -18 -16z"/>
<path d="M7974 2236 c-3 -8 -3 -20 1 -26 8 -13 35 -13 35 0 0 6 -5 10 -11 10
-5 0 -8 4 -4 9 3 5 1 12 -5 16 -6 3 -13 -1 -16 -9z"/>
<path d="M7310 2055 c0 -4 82 -151 109 -195 15 -26 22 -5 9 31 -6 19 -16 61
-22 93 -6 34 -17 61 -25 64 -11 4 -12 -4 -7 -34 l6 -39 -26 43 c-22 36 -44 54
-44 37z"/>
<path d="M7424 2013 c23 -99 50 -173 63 -173 10 0 12 6 8 20 -9 29 10 25 23
-5 6 -14 18 -25 27 -25 19 0 -77 195 -101 204 -25 10 -27 8 -20 -21z m60 -78
c3 -8 1 -15 -4 -15 -6 0 -10 7 -10 15 0 8 2 15 4 15 2 0 6 -7 10 -15z"/>
<path d="M7530 1939 c17 -44 35 -89 40 -100 13 -24 35 -26 25 -1 -16 41 -15
44 5 10 24 -44 45 -52 30 -12 -18 45 -10 50 10 7 10 -24 24 -43 30 -43 13 0
16 -11 -28 105 -31 80 -42 101 -60 103 -20 3 -21 1 -11 -28 17 -46 5 -46 -16
0 -11 25 -25 40 -36 40 -17 0 -16 -7 11 -81z"/>
<path d="M7650 1991 c0 -22 43 -177 52 -188 15 -18 27 -7 21 20 -4 18 0 16 25
-13 17 -19 33 -33 35 -30 7 7 -88 201 -104 211 -18 11 -29 11 -29 0z"/>
<path d="M7740 1971 c0 -23 63 -181 76 -192 22 -18 26 -6 9 34 -12 30 -13 37
-2 37 8 0 20 -18 27 -39 7 -22 20 -43 28 -46 20 -8 25 0 14 22 -5 10 -22 55
-37 101 -18 53 -33 82 -42 82 -15 0 -14 -20 3 -64 3 -9 1 -16 -5 -16 -7 0 -20
20 -31 45 -17 40 -40 60 -40 36z"/>
<path d="M7881 1948 c0 -13 8 -59 18 -103 13 -62 20 -81 35 -83 15 -3 18 0 13
17 -7 30 17 27 31 -4 11 -23 42 -36 42 -16 0 4 -17 46 -39 92 -21 46 -41 92
-44 102 -4 10 -17 17 -32 17 -20 0 -25 -5 -24 -22z m63 -107 c-6 -6 -11 1 -18
29 l-7 25 15 -25 c8 -14 12 -27 10 -29z"/>
<path d="M7300 1905 c0 -16 27 -32 37 -21 7 7 -16 36 -28 36 -5 0 -9 -7 -9
-15z"/>
<path d="M6698 1033 c7 -3 16 -2 19 1 4 3 -2 6 -13 5 -11 0 -14 -3 -6 -6z"/>
<path d="M7055 1030 c11 -5 29 -8 40 -8 16 0 15 2 -5 8 -34 11 -60 11 -35 0z"/>
<path d="M7010 1025 c0 -10 29 -24 34 -17 3 6 -3 12 -14 15 -11 3 -20 4 -20 2z"/>
<path d="M6421 1003 c-16 -17 -11 -25 8 -14 7 5 12 13 10 19 -2 6 -10 4 -18
-5z"/>
<path d="M7128 988 c5 -5 16 -8 23 -6 8 3 3 7 -10 11 -17 4 -21 3 -13 -5z"/>
<path d="M7030 984 c0 -2 9 -8 20 -14 11 -6 20 -7 20 -2 0 6 -9 12 -20 15 -11
3 -20 3 -20 1z"/>
<path d="M7738 983 c7 -3 16 -2 19 1 4 3 -2 6 -13 5 -11 0 -14 -3 -6 -6z"/>
<path d="M8227 969 c7 -7 15 -10 18 -7 3 3 -2 9 -12 12 -14 6 -15 5 -6 -5z"/>
<path d="M8275 960 c11 -5 29 -8 40 -8 16 0 15 2 -5 8 -34 11 -60 11 -35 0z"/>
<path d="M10270 966 c0 -2 9 -6 20 -9 11 -3 18 -1 14 4 -5 9 -34 13 -34 5z"/>
<path d="M10320 960 c0 -5 9 -12 20 -15 11 -3 20 -11 20 -16 0 -5 6 -9 13 -7
10 2 73 -7 127 -18 8 -2 35 -6 59 -9 24 -3 49 -9 55 -12 6 -4 18 -9 26 -10 8
-1 51 -9 95 -18 106 -20 105 -20 105 15 0 37 -2 37 -114 45 -49 3 -95 10 -103
16 -7 6 -24 9 -38 7 -14 -3 -25 -1 -25 4 0 5 -4 6 -10 3 -5 -3 -18 -1 -29 4
-14 8 -21 8 -24 -2 -4 -8 -8 -8 -14 -2 -4 6 -28 10 -53 10 -25 0 -60 3 -77 7
-19 4 -33 3 -33 -2z"/>
<path d="M7690 940 c8 -5 20 -10 25 -10 6 0 3 5 -5 10 -8 5 -19 10 -25 10 -5
0 -3 -5 5 -10z"/>
<path d="M7747 932 c-14 -3 -16 -7 -6 -18 14 -17 33 -19 23 -2 -4 7 -3 8 4 4
30 -18 113 -28 133 -15 9 6 -2 9 -33 9 -26 0 -49 4 -52 9 -7 11 -45 18 -69 13z"/>
<path d="M9665 930 c-3 -5 1 -10 10 -10 9 0 13 5 10 10 -3 6 -8 10 -10 10 -2
0 -7 -4 -10 -10z"/>
<path d="M7628 923 c7 -3 16 -2 19 1 4 3 -2 6 -13 5 -11 0 -14 -3 -6 -6z"/>
<path d="M9437 916 c-3 -8 0 -17 7 -19 10 -4 12 1 9 14 -6 23 -9 24 -16 5z"/>
<path d="M8230 916 c0 -2 7 -7 16 -10 8 -3 12 -2 9 4 -6 10 -25 14 -25 6z"/>
<path d="M9520 916 c0 -2 7 -6 15 -10 8 -3 15 -1 15 4 0 6 -7 10 -15 10 -8 0
-15 -2 -15 -4z"/>
<path d="M9578 913 c7 -3 16 -2 19 1 4 3 -2 6 -13 5 -11 0 -14 -3 -6 -6z"/>
<path d="M8940 899 c0 -5 5 -7 10 -4 6 3 10 8 10 11 0 2 -4 4 -10 4 -5 0 -10
-5 -10 -11z"/>
<path d="M7930 889 c0 -5 9 -9 20 -9 11 0 20 2 20 4 0 2 -9 6 -20 9 -11 3 -20
1 -20 -4z"/>
<path d="M8348 883 c7 -3 16 -2 19 1 4 3 -2 6 -13 5 -11 0 -14 -3 -6 -6z"/>
<path d="M9008 883 c6 -2 18 -2 25 0 6 3 1 5 -13 5 -14 0 -19 -2 -12 -5z"/>
<path d="M9060 880 c0 -5 5 -10 10 -10 6 0 10 5 10 10 0 6 -4 10 -10 10 -5 0
-10 -4 -10 -10z"/>
<path d="M9168 883 c14 -3 22 -12 22 -24 0 -25 16 -25 23 0 5 19 -19 32 -53
30 -8 -1 -5 -4 8 -6z"/>
<path d="M8000 870 c14 -4 36 -8 50 -8 22 0 22 1 -5 8 -16 4 -39 8 -50 8 -16
0 -15 -2 5 -8z"/>
<path d="M8406 870 c5 -5 25 -12 44 -15 l35 -6 -34 15 c-38 18 -60 21 -45 6z"/>
<path d="M7890 854 c47 -18 51 -19 100 -27 14 -2 17 -2 8 0 -10 2 -18 8 -18
12 0 4 -6 8 -12 8 -7 0 -31 3 -53 7 -22 3 -33 3 -25 0z"/>
<path d="M8120 849 c19 -6 48 -17 63 -25 36 -18 48 -18 41 1 -4 8 -10 12 -15
9 -6 -3 -15 -1 -22 4 -7 5 -32 12 -57 15 -43 5 -43 5 -10 -4z"/>
<path d="M8065 810 c3 -5 10 -10 16 -10 5 0 9 5 9 10 0 6 -7 10 -16 10 -8 0
-12 -4 -9 -10z"/>
<path d="M8250 810 c0 -5 5 -10 10 -10 6 0 10 5 10 10 0 6 -4 10 -10 10 -5 0
-10 -4 -10 -10z"/>
<path d="M8108 793 c6 -2 18 -2 25 0 6 3 1 5 -13 5 -14 0 -19 -2 -12 -5z"/>
</g>
</svg>
